<svg width="24" height="24" viewBox="0 0 24 24" fill="none" xmlns="http://www.w3.org/2000/svg">
<path d="M8.71086 9.28646C8.5227 9.09835 8.26749 8.99266 8.00139 8.99266C7.73529 8.99266 7.48008 9.09835 7.29192 9.28646C7.10376 9.47458 6.99805 9.72972 6.99805 9.99576C6.99805 10.1275 7.024 10.2579 7.07442 10.3796C7.12484 10.5013 7.19875 10.6119 7.29192 10.7051L11.2889 14.7011C11.3818 14.7947 11.4923 14.8691 11.6141 14.9198C11.7359 14.9705 11.8665 14.9966 11.9984 14.9966C12.1303 14.9966 12.2609 14.9705 12.3827 14.9198C12.5045 14.8691 12.615 14.7947 12.7079 14.7011L23.6997 3.71197C23.8878 3.52385 23.9935 3.26871 23.9935 3.00267C23.9935 2.73663 23.8878 2.48149 23.6997 2.29337C23.5115 2.10526 23.2563 1.99957 22.9902 1.99957C22.7241 1.99957 22.4689 2.10526 22.2807 2.29337L11.9984 12.5832L8.71086 9.28646Z" fill="#000000"/>
<path d="M21.9942 8.99907C21.8743 9.12047 21.7874 9.27056 21.7419 9.43503C21.6964 9.59949 21.6938 9.77287 21.7343 9.93864C22.139 11.7388 22.0105 13.6179 21.3644 15.3462C20.722 17.3117 19.4648 19.0187 17.7783 20.2155C16.0919 21.4123 14.0654 22.0355 11.9979 21.9932C10.6739 22.0348 9.35539 21.8047 8.12375 21.3171C6.89212 20.8295 5.77346 20.0948 4.83679 19.1582C3.90011 18.2216 3.1653 17.103 2.67767 15.8715C2.19003 14.64 1.95993 13.3216 2.00156 11.9977C2.00156 9.34675 3.05474 6.80436 4.92941 4.92985C6.80408 3.05534 9.34669 2.00225 11.9979 2.00225C13.6599 1.94896 15.303 2.36835 16.7361 3.2117C16.9321 3.33504 17.1648 3.38653 17.3946 3.35736C17.6243 3.32819 17.8367 3.22018 17.9957 3.05177C18.1029 2.94248 18.1836 2.81 18.2316 2.66457C18.2795 2.51914 18.2934 2.36463 18.2721 2.21299C18.2509 2.06134 18.1951 1.9166 18.109 1.78994C18.0229 1.66329 17.9089 1.5581 17.7757 1.48249C16.0229 0.466541 14.0234 -0.0454023 11.9979 0.00316022C8.81645 0.00316022 5.76533 1.26687 3.51572 3.51628C1.26611 5.7657 0.00229181 8.81656 0.00229181 11.9977C-0.0289735 13.5814 0.259939 15.1552 0.851705 16.6246C1.44347 18.0939 2.3259 19.4287 3.44608 20.5488C4.56627 21.6688 5.90113 22.5512 7.37063 23.1429C8.84013 23.7346 10.414 24.0235 11.9979 23.9923C14.6728 23.97 17.2653 23.064 19.3716 21.4152C21.4779 19.7665 22.9799 17.4675 23.6436 14.8764C24.0853 13.107 24.1093 11.2591 23.7136 9.47885C23.6777 9.29732 23.5922 9.12931 23.4665 8.99352C23.3407 8.85773 23.1798 8.7595 23.0016 8.70976C22.8233 8.66003 22.6348 8.66074 22.4569 8.71182C22.2791 8.7629 22.1189 8.86234 21.9942 8.99907Z" fill="#000000"/>
</svg>
