<svg width="12" height="9" viewBox="0 0 12 9" fill="none" xmlns="http://www.w3.org/2000/svg">
<path fill-rule="evenodd" clip-rule="evenodd" d="M11.6791 0.330393C11.7806 0.434858 11.8612 0.558959 11.9162 0.695587C11.9712 0.832214 11.9995 0.978685 11.9995 1.12661C11.9995 1.27453 11.9712 1.421 11.9162 1.55763C11.8612 1.69426 11.7806 1.81836 11.6791 1.92282L5.13572 8.67042C5.03442 8.77515 4.91407 8.85824 4.78158 8.91493C4.64909 8.97163 4.50705 9.00081 4.36361 9.00081C4.22016 9.00081 4.07812 8.97163 3.94563 8.91493C3.81314 8.85824 3.6928 8.77515 3.59149 8.67042L0.319821 5.29662C0.218425 5.19206 0.137994 5.06793 0.0831187 4.93131C0.0282438 4.7947 1.06838e-09 4.64828 0 4.50041C-1.06837e-09 4.35253 0.0282438 4.20611 0.0831187 4.0695C0.137994 3.93288 0.218425 3.80875 0.319821 3.70419C0.421216 3.59963 0.54159 3.51669 0.67407 3.4601C0.806549 3.40351 0.948541 3.37439 1.09194 3.37439C1.23533 3.37439 1.37732 3.40351 1.5098 3.4601C1.64228 3.51669 1.76265 3.59963 1.86405 3.70419L4.36361 6.28402L10.1348 0.330393C10.2361 0.225663 10.3565 0.142571 10.489 0.0858762C10.6215 0.0291819 10.7635 0 10.907 0C11.0504 0 11.1924 0.0291819 11.3249 0.0858762C11.4574 0.142571 11.5778 0.225663 11.6791 0.330393Z" fill="black"/>
</svg>
