<svg width="12" height="10" viewBox="0 0 12 10" fill="none" xmlns="http://www.w3.org/2000/svg">
<path fill-rule="evenodd" clip-rule="evenodd" d="M11.6791 0.829965C11.7806 0.934431 11.8612 1.05853 11.9162 1.19516C11.9712 1.33179 11.9995 1.47826 11.9995 1.62618C11.9995 1.77411 11.9712 1.92058 11.9162 2.0572C11.8612 2.19383 11.7806 2.31793 11.6791 2.4224L5.13572 9.16999C5.03442 9.27472 4.91407 9.35781 4.78158 9.41451C4.64909 9.4712 4.50705 9.50038 4.36361 9.50038C4.22016 9.50038 4.07812 9.4712 3.94563 9.41451C3.81314 9.35781 3.6928 9.27472 3.59149 9.16999L0.319821 5.79619C0.218425 5.69163 0.137994 5.5675 0.0831187 5.43089C0.0282438 5.29427 1.06838e-09 5.14785 0 4.99998C-1.06837e-09 4.85211 0.0282438 4.70568 0.0831187 4.56907C0.137994 4.43245 0.218425 4.30832 0.319821 4.20376C0.421216 4.0992 0.54159 4.01626 0.67407 3.95967C0.806549 3.90308 0.948541 3.87396 1.09194 3.87396C1.23533 3.87396 1.37732 3.90308 1.5098 3.95967C1.64228 4.01626 1.76265 4.0992 1.86405 4.20376L4.36361 6.78359L10.1348 0.829965C10.2361 0.725235 10.3565 0.642143 10.489 0.585449C10.6215 0.528755 10.7635 0.499573 10.907 0.499573C11.0504 0.499573 11.1924 0.528755 11.3249 0.585449C11.4574 0.642143 11.5778 0.725235 11.6791 0.829965Z" fill="#000000"/>
</svg>
