<svg width="40" height="40" viewBox="0 0 40 40" fill="none" xmlns="http://www.w3.org/2000/svg">
<path d="M25.73 15.5401C25.8997 15.3717 25.9956 15.1427 25.9966 14.9036C25.9975 14.6645 25.9034 14.4348 25.735 14.2651C25.5666 14.0954 25.3376 13.9995 25.0985 13.9985C24.8594 13.9976 24.6297 14.0917 24.46 14.2601L20.71 18.0001C20.617 18.0938 20.5064 18.1682 20.3846 18.219C20.2627 18.2698 20.132 18.2959 20 18.2959C19.868 18.2959 19.7373 18.2698 19.6154 18.219C19.4936 18.1682 19.383 18.0938 19.29 18.0001L15.54 14.2501C15.3703 14.0817 15.1406 13.9876 14.9015 13.9885C14.6624 13.9895 14.4334 14.0854 14.265 14.2551C14.0966 14.4248 14.0025 14.6545 14.0034 14.8936C14.0044 15.1327 14.1003 15.3617 14.27 15.5301L18 19.2901C18.0937 19.3831 18.1681 19.4937 18.2189 19.6155C18.2697 19.7374 18.2958 19.8681 18.2958 20.0001C18.2958 20.1321 18.2697 20.2628 18.2189 20.3847C18.1681 20.5065 18.0937 20.6171 18 20.7101L14.26 24.4601C14.1096 24.6319 14.0301 24.8545 14.0376 25.0828C14.0452 25.311 14.1392 25.5279 14.3007 25.6894C14.4622 25.8508 14.6791 25.9449 14.9073 25.9525C15.1356 25.96 15.3582 25.8805 15.53 25.7301L19.29 22.0001C19.383 21.9064 19.4936 21.832 19.6154 21.7812C19.7373 21.7304 19.868 21.7043 20 21.7043C20.132 21.7043 20.2627 21.7304 20.3846 21.7812C20.5064 21.832 20.617 21.9064 20.71 22.0001L24.46 25.7401C24.6318 25.8905 24.8544 25.97 25.0827 25.9625C25.3109 25.9549 25.5278 25.8608 25.6893 25.6994C25.8508 25.5379 25.9448 25.321 25.9524 25.0928C25.9599 24.8645 25.8804 24.6419 25.73 24.4701L22 20.7101C21.9063 20.6171 21.8319 20.5065 21.7811 20.3847C21.7303 20.2628 21.7042 20.1321 21.7042 20.0001C21.7042 19.8681 21.7303 19.7374 21.7811 19.6155C21.8319 19.4937 21.9063 19.3831 22 19.2901L25.73 15.5401Z" fill="#9BA0B0"/>
<path d="M20 0C16.0444 0 12.1776 1.17298 8.8886 3.37061C5.59961 5.56824 3.03616 8.69181 1.52241 12.3463C0.00865666 16.0009 -0.38741 20.0222 0.384294 23.9018C1.156 27.7814 3.06081 31.3451 5.85786 34.1421C8.65491 36.9392 12.2186 38.844 16.0982 39.6157C19.9778 40.3874 23.9991 39.9913 27.6537 38.4776C31.3082 36.9638 34.4318 34.4004 36.6294 31.1114C38.827 27.8224 40 23.9556 40 20C40 14.6957 37.8929 9.60859 34.1421 5.85786C30.3914 2.10714 25.3043 0 20 0V0ZM20 38C16.4399 38 12.9598 36.9443 9.99974 34.9665C7.03965 32.9886 4.73255 30.1774 3.37017 26.8883C2.00779 23.5992 1.65133 19.98 2.34587 16.4884C3.0404 12.9967 4.75473 9.78942 7.27208 7.27208C9.78942 4.75473 12.9967 3.0404 16.4884 2.34587C19.98 1.65133 23.5992 2.00779 26.8883 3.37017C30.1774 4.73255 32.9886 7.03965 34.9665 9.99974C36.9443 12.9598 38 16.4399 38 20C38 24.7739 36.1036 29.3523 32.7279 32.7279C29.3523 36.1036 24.7739 38 20 38Z" fill="#9BA0B0"/>
</svg>
