<svg width="24" height="24" viewBox="0 0 24 24" fill="none" xmlns="http://www.w3.org/2000/svg">
<path d="M12 0C9.62663 0 7.30655 0.703788 5.33316 2.02236C3.35977 3.34094 1.8217 5.21509 0.913451 7.4078C0.00519943 9.60051 -0.232441 12.0133 0.230582 14.3411C0.693605 16.6689 1.83649 18.8071 3.51472 20.4853C5.19295 22.1635 7.33115 23.3064 9.65892 23.7694C11.9867 24.2324 14.3995 23.9948 16.5922 23.0866C18.7849 22.1783 20.6591 20.6402 21.9776 18.6668C23.2962 16.6935 24 14.3734 24 12C24 8.8174 22.7357 5.76515 20.4853 3.51472C18.2348 1.26428 15.1826 0 12 0V0ZM12 22C10.0222 22 8.08879 21.4135 6.4443 20.3147C4.79981 19.2159 3.51809 17.6541 2.76121 15.8268C2.00433 13.9996 1.8063 11.9889 2.19215 10.0491C2.578 8.10929 3.53041 6.32746 4.92894 4.92893C6.32746 3.53041 8.10929 2.578 10.0491 2.19215C11.9889 1.8063 13.9996 2.00433 15.8268 2.7612C17.6541 3.51808 19.2159 4.79981 20.3147 6.4443C21.4135 8.08879 22 10.0222 22 12C22 14.6522 20.9464 17.1957 19.0711 19.0711C17.1957 20.9464 14.6522 22 12 22Z" fill="#88CCBB"/>
<path d="M17.6501 13C17.4463 13.0021 17.248 13.0665 17.0818 13.1844C16.9156 13.3024 16.7894 13.4683 16.7201 13.66C16.3779 14.639 15.7398 15.4873 14.8942 16.0876C14.0485 16.6878 13.0371 17.0103 12.0001 17.0103C10.963 17.0103 9.95166 16.6878 9.106 16.0876C8.26034 15.4873 7.62224 14.639 7.28008 13.66C7.21079 13.4683 7.08459 13.3024 6.91838 13.1844C6.75217 13.0665 6.55388 13.0021 6.35008 13C6.18794 13.0005 6.02836 13.0404 5.88507 13.1162C5.74178 13.1921 5.61909 13.3017 5.52757 13.4355C5.43605 13.5694 5.37845 13.7234 5.35972 13.8845C5.34099 14.0455 5.36171 14.2087 5.42008 14.36C5.91055 15.7114 6.80521 16.8789 7.98246 17.704C9.15971 18.5291 10.5625 18.9718 12.0001 18.9718C13.4377 18.9718 14.8404 18.5291 16.0177 17.704C17.1949 16.8789 18.0896 15.7114 18.5801 14.36C18.6384 14.2087 18.6592 14.0455 18.6404 13.8845C18.6217 13.7234 18.5641 13.5694 18.4726 13.4355C18.3811 13.3017 18.2584 13.1921 18.1151 13.1162C17.9718 13.0404 17.8122 13.0005 17.6501 13Z" fill="#88CCBB"/>
<path d="M8.5 10C9.32843 10 10 9.32843 10 8.5C10 7.67157 9.32843 7 8.5 7C7.67157 7 7 7.67157 7 8.5C7 9.32843 7.67157 10 8.5 10Z" fill="#88CCBB"/>
<path d="M15.5 10C16.3284 10 17 9.32843 17 8.5C17 7.67157 16.3284 7 15.5 7C14.6716 7 14 7.67157 14 8.5C14 9.32843 14.6716 10 15.5 10Z" fill="#88CCBB"/>
</svg>
