<svg width="65" height="65" viewBox="0 0 65 65" fill="none" xmlns="http://www.w3.org/2000/svg">
<g clip-path="url(#clip0_1_596)">
<path d="M19 19H12C11.4696 19 10.9609 19.2107 10.5858 19.5858C10.2107 19.9609 10 20.4696 10 21V28C10 28.5304 10.2107 29.0391 10.5858 29.4142C10.9609 29.7893 11.4696 30 12 30H19C19.5304 30 20.0391 29.7893 20.4142 29.4142C20.7893 29.0391 21 28.5304 21 28V21C21 20.4696 20.7893 19.9609 20.4142 19.5858C20.0391 19.2107 19.5304 19 19 19ZM18 27H13V22H18V27Z" fill="#515483"/>
<path d="M33 19H26C25.4696 19 24.9609 19.2107 24.5858 19.5858C24.2107 19.9609 24 20.4696 24 21V28C24 28.5304 24.2107 29.0391 24.5858 29.4142C24.9609 29.7893 25.4696 30 26 30H33C33.5304 30 34.0391 29.7893 34.4142 29.4142C34.7893 29.0391 35 28.5304 35 28V21C35 20.4696 34.7893 19.9609 34.4142 19.5858C34.0391 19.2107 33.5304 19 33 19ZM32 27H27V22H32V27Z" fill="#515483"/>
<path d="M19 33H12C11.4696 33 10.9609 33.2107 10.5858 33.5858C10.2107 33.9609 10 34.4696 10 35V42C10 42.5304 10.2107 43.0391 10.5858 43.4142C10.9609 43.7893 11.4696 44 12 44H19C19.5304 44 20.0391 43.7893 20.4142 43.4142C20.7893 43.0391 21 42.5304 21 42V35C21 34.4696 20.7893 33.9609 20.4142 33.5858C20.0391 33.2107 19.5304 33 19 33ZM18 41H13V36H18V41Z" fill="#515483"/>
<path d="M33 33H26C25.4696 33 24.9609 33.2107 24.5858 33.5858C24.2107 33.9609 24 34.4696 24 35V42C24 42.5304 24.2107 43.0391 24.5858 43.4142C24.9609 43.7893 25.4696 44 26 44H33C33.5304 44 34.0391 43.7893 34.4142 43.4142C34.7893 43.0391 35 42.5304 35 42V35C35 34.4696 34.7893 33.9609 34.4142 33.5858C34.0391 33.2107 33.5304 33 33 33ZM32 41H27V36H32V41Z" fill="#515483"/>
<path d="M19 47H12C11.4696 47 10.9609 47.2107 10.5858 47.5858C10.2107 47.9609 10 48.4696 10 49V56C10 56.5304 10.2107 57.0391 10.5858 57.4142C10.9609 57.7893 11.4696 58 12 58H19C19.5304 58 20.0391 57.7893 20.4142 57.4142C20.7893 57.0391 21 56.5304 21 56V49C21 48.4696 20.7893 47.9609 20.4142 47.5858C20.0391 47.2107 19.5304 47 19 47ZM18 55H13V50H18V55Z" fill="#515483"/>
<path d="M33 47H26C25.4696 47 24.9609 47.2107 24.5858 47.5858C24.2107 47.9609 24 48.4696 24 49V56C24 56.5304 24.2107 57.0391 24.5858 57.4142C24.9609 57.7893 25.4696 58 26 58H33C33.5304 58 34.0391 57.7893 34.4142 57.4142C34.7893 57.0391 35 56.5304 35 56V49C35 48.4696 34.7893 47.9609 34.4142 47.5858C34.0391 47.2107 33.5304 47 33 47ZM32 55H27V50H32V55Z" fill="#515483"/>
<path d="M57.37 27.29C57.8785 26.004 58.0838 24.6182 57.97 23.24C57.7593 21.016 56.7379 18.9472 55.1004 17.4277C53.4628 15.9081 51.3235 15.0441 49.09 15C46.8417 14.9768 44.6673 15.8016 43 17.31V15C43.5304 15 44.0391 14.7893 44.4142 14.4142C44.7893 14.0391 45 13.5304 45 13V8C45 7.46957 44.7893 6.96086 44.4142 6.58579C44.0391 6.21071 43.5304 6 43 6H35V2C35 1.46957 34.7893 0.960859 34.4142 0.585786C34.0391 0.210714 33.5304 0 33 0L12 0C11.4696 0 10.9609 0.210714 10.5858 0.585786C10.2107 0.960859 10 1.46957 10 2V6H2C1.46957 6 0.960859 6.21071 0.585786 6.58579C0.210714 6.96086 0 7.46957 0 8L0 13C0 13.5304 0.210714 14.0391 0.585786 14.4142C0.960859 14.7893 1.46957 15 2 15V63C2 63.5304 2.21071 64.0391 2.58579 64.4142C2.96086 64.7893 3.46957 65 4 65H48.5C48.8978 65 49.2794 64.842 49.5607 64.5607C49.842 64.2794 50 63.8978 50 63.5V45.64C51.2407 46.3705 52.6244 46.8245 54.0567 46.971C55.489 47.1174 56.936 46.9528 58.2988 46.4885C59.6617 46.0242 60.9082 45.2711 61.9531 44.2807C62.9981 43.2902 63.8168 42.0858 64.3534 40.7498C64.89 39.4138 65.1318 37.9776 65.0622 36.5396C64.9926 35.1015 64.6133 33.6954 63.9503 32.4174C63.2872 31.1395 62.356 30.0197 61.2203 29.1348C60.0847 28.2499 58.7713 27.6206 57.37 27.29ZM47 62H43V47C44.3761 46.9395 45.7305 46.6347 47 46.1V62ZM13 3H32V6H13V3ZM24.68 62H5V15H19.5C19.8978 15 20.2794 14.842 20.5607 14.5607C20.842 14.2794 21 13.8978 21 13.5C21 13.1022 20.842 12.7206 20.5607 12.4393C20.2794 12.158 19.8978 12 19.5 12H3V9H42V12H25.5C25.1022 12 24.7206 12.158 24.4393 12.4393C24.158 12.7206 24 13.1022 24 13.5C24 13.8978 24.158 14.2794 24.4393 14.5607C24.7206 14.842 25.1022 15 25.5 15H40V62H24.68ZM55 44.06C54.0716 44.0654 53.1514 43.886 52.293 43.5323C51.4346 43.1787 50.6552 42.6578 50 42V40.12L53 37.12C53.2811 36.8349 53.4375 36.4498 53.4347 36.0494C53.4319 35.649 53.2701 35.2661 52.985 34.985C52.6999 34.7039 52.3148 34.5475 51.9144 34.5503C51.514 34.5531 51.1311 34.7149 50.85 35L50 35.85V27.5C50 27.1022 49.842 26.7206 49.5607 26.4393C49.2794 26.158 48.8978 26 48.5 26C48.1022 26 47.7206 26.158 47.4393 26.4393C47.158 26.7206 47 27.1022 47 27.5V42.78C45.8026 43.5432 44.4195 43.965 43 44V22.33C43.2664 21.425 43.7361 20.5929 44.3733 19.8972C45.0104 19.2015 45.7982 18.6607 46.6763 18.316C47.5545 17.9713 48.4998 17.8318 49.44 17.9083C50.3803 17.9848 51.2907 18.2752 52.1015 18.7574C52.9124 19.2395 53.6024 19.9006 54.1187 20.6901C54.635 21.4796 54.964 22.3767 55.0806 23.3129C55.1972 24.249 55.0983 25.1994 54.7914 26.0915C54.4846 26.9836 53.9778 27.7937 53.31 28.46C52.52 29.25 53.24 30.12 54.11 29.95C54.4055 29.9151 54.7025 29.8951 55 29.89C55.9528 29.8542 56.9031 30.0109 57.7939 30.3509C58.6847 30.6908 59.4978 31.2069 60.1846 31.8684C60.8713 32.5298 61.4176 33.323 61.7908 34.2004C62.1639 35.0778 62.3562 36.0215 62.3562 36.975C62.3562 37.9285 62.1639 38.8722 61.7908 39.7496C61.4176 40.627 60.8713 41.4202 60.1846 42.0816C59.4978 42.7431 58.6847 43.2592 57.7939 43.5991C56.9031 43.9391 55.9528 44.0958 55 44.06Z" fill="#515483"/>
</g>
<defs>
<clipPath id="clip0_1_596">
<rect width="65" height="65" fill="white"/>
</clipPath>
</defs>
</svg>
