<svg width="140" height="140" viewBox="0 0 140 140" fill="none" xmlns="http://www.w3.org/2000/svg">
<g clip-path="url(#clip0_1_297)">
<path d="M82.5373 114.807H57.681V123.092H82.5373V114.807Z" fill="#2957FF"/>
<path d="M52.012 74.9058C52.012 68.1467 46.561 62.4777 39.5838 62.4777C32.8246 62.4777 27.1557 67.9286 27.1557 74.9058C27.1557 81.883 32.6066 87.334 39.5838 87.334C46.561 87.334 52.012 81.447 52.012 74.9058ZM45.2528 79.7027C45.0348 80.3568 44.5987 80.7929 44.1626 81.0109C43.7265 81.447 43.0725 81.665 42.4183 81.8831C41.7642 82.1011 41.1101 82.1011 40.4559 82.1011V84.4995H39.1478V82.1011C38.2756 82.1011 37.1854 81.883 36.3132 81.447C35.4411 81.2289 34.569 80.7928 33.6968 80.1387L35.2231 77.0862C35.2231 77.0862 35.4411 77.3043 35.6592 77.5223C35.8772 77.7404 36.3133 77.9583 36.5313 77.9583C36.9674 78.1764 37.4035 78.3945 37.8395 78.3945C38.2756 78.6125 38.7116 78.6125 39.3658 78.8306V75.996L38.2756 75.778C37.6215 75.5599 36.9674 75.3419 36.5313 75.1239C36.0952 74.9058 35.6591 74.6878 35.2231 74.2517C34.787 74.0337 34.569 73.5976 34.569 73.1616C34.3509 72.7255 34.3509 72.2894 34.3509 71.6353C34.3509 70.9812 34.569 70.3271 34.787 69.6729C35.0051 69.0188 35.4411 68.5827 35.8772 68.1467C36.3133 67.7106 36.7493 67.4926 37.4034 67.2745C38.0575 67.0565 38.7116 66.8385 39.3658 66.8385V64.6581H40.8921V66.8385C41.7642 66.8385 42.6364 67.0565 43.5085 67.4926C44.3807 67.7106 45.0348 68.1467 45.6889 68.5828L44.1626 71.4172C44.1626 71.4172 43.9446 71.1992 43.7265 71.1992C43.5085 70.9812 43.2905 70.9812 42.8544 70.7631C42.6363 70.5451 42.2003 70.5451 41.7642 70.327C41.3281 70.109 40.892 70.109 40.674 70.109V72.9435L41.3282 73.1616C41.9823 73.3796 42.6364 73.5976 43.2905 73.8156C43.9446 74.0337 44.3806 74.2517 44.8167 74.6878C45.2528 75.1239 45.4709 75.5599 45.6889 75.996C45.9069 76.4321 46.1249 77.0863 46.1249 77.7404C45.6889 78.6125 45.6889 79.2666 45.2528 79.7027Z" fill="#2957FF"/>
<path d="M97.3638 125.709H83.4094H56.1547H42.2003C40.6741 125.709 39.3658 127.017 39.3658 128.543C39.3658 130.069 40.6741 131.378 42.2003 131.378H97.1458C98.6721 131.378 99.9803 130.069 99.9803 128.543C100.416 127.017 98.8901 125.709 97.3638 125.709Z" fill="#2957FF"/>
<path d="M41.5462 77.3043C41.3281 77.0863 40.892 76.8682 40.456 76.6502V79.2666C41.5462 79.2666 42.2003 78.8305 42.2003 78.1764C41.9823 77.7404 41.9822 77.3043 41.5462 77.3043Z" fill="#2957FF"/>
<path d="M37.8395 71.1993C37.8395 71.6353 38.0575 71.8534 38.2756 72.0714C38.4936 72.2894 38.9297 72.5074 39.3658 72.5074V70.1091C38.4936 70.1091 37.8395 70.5451 37.8395 71.1993Z" fill="#2957FF"/>
<path d="M120.694 90.1685H80.7929C80.1388 90.1685 79.4848 89.5144 79.4848 88.8603C79.4848 88.2061 80.1388 87.5521 80.7929 87.5521H120.694V35.223H19.0883V95.8375H120.912V90.3865H120.694V90.1685ZM107.176 44.5986C107.176 43.9445 107.83 43.2904 108.484 43.2904C109.138 43.2904 109.792 43.9445 109.792 44.5986V61.1695C109.792 61.8236 109.138 62.4777 108.484 62.4777C107.83 62.4777 107.176 61.8236 107.176 61.1695V44.5986ZM98.6721 47.4331C98.6721 46.779 99.3262 46.1249 99.9803 46.1249C100.634 46.1249 101.289 46.779 101.289 47.4331V61.3876C101.289 62.0417 100.634 62.6957 99.9803 62.6957C99.3262 62.6957 98.6721 62.0417 98.6721 61.3876V47.4331ZM90.6046 50.0496C90.6046 49.3954 91.2588 48.7413 91.9129 48.7413C92.567 48.7413 93.2211 49.3954 93.2211 50.0496V60.9515C93.2211 61.6056 92.567 62.2597 91.9129 62.2597C91.2588 62.2597 90.6046 61.6056 90.6046 60.9515V50.0496ZM82.3192 52.884C82.3192 52.2299 82.9734 51.5759 83.6275 51.5759C84.2816 51.5759 84.9357 52.2299 84.9357 52.884V61.1695C84.9357 61.8236 84.2816 62.4777 83.6275 62.4777C82.9734 62.4777 82.3192 61.8236 82.3192 61.1695V52.884ZM82.9733 76.4321L91.2588 70.9812C91.9129 70.5451 92.785 70.7631 93.2211 71.4172L97.7999 78.3945L110.446 68.3647C111.1 67.9286 111.972 67.9287 112.408 68.5828C112.844 69.2369 112.845 70.109 112.19 70.5451L98.236 81.447C98.0179 81.665 97.7999 81.665 97.3638 81.665H97.1458C96.7097 81.665 96.4917 81.447 96.2736 81.0109L91.4768 74.0337L84.4996 78.8306C83.8455 79.2666 82.9734 79.0486 82.5373 78.3945C82.1012 77.7404 82.3192 76.8682 82.9733 76.4321ZM25.8475 40.674H34.1329C34.787 40.674 35.4411 41.328 35.4411 41.9821C35.4411 42.6363 34.787 43.2904 34.1329 43.2904H25.8475C25.1934 43.2904 24.5392 42.6363 24.5392 41.9821C24.5392 41.11 25.1934 40.674 25.8475 40.674ZM25.8475 48.7413H34.1329C34.787 48.7413 35.4411 49.3954 35.4411 50.0496C35.4411 50.7037 34.787 51.3578 34.1329 51.3578H25.8475C25.1934 51.3578 24.5392 50.7037 24.5392 50.0496C24.5392 49.3954 25.1934 48.7413 25.8475 48.7413ZM53.5382 89.9504H39.8019C31.5164 89.9504 24.7573 83.1913 24.7573 74.9059C24.7573 69.891 27.3737 65.3122 31.0804 62.4777H25.8475C25.1934 62.4777 24.5392 61.8236 24.5392 61.1695C24.5392 60.5154 25.1934 59.8613 25.8475 59.8613H39.5838C47.8693 59.8613 54.6284 66.6204 54.6284 74.9059C54.6284 79.9207 52.012 84.4995 48.3053 87.334H53.3202C53.9744 87.334 54.6284 87.9882 54.6284 88.6423C54.6284 89.2964 54.1923 89.9504 53.5382 89.9504ZM72.7256 91.4767C71.1993 91.4767 69.8911 90.1685 69.8911 88.6423C69.8911 87.116 71.1993 85.8077 72.7256 85.8077C74.2519 85.8077 75.5601 87.116 75.5601 88.6423C75.342 90.1685 74.0338 91.4767 72.7256 91.4767Z" fill="#2957FF"/>
<path d="M10.8029 32.3885V106.303C10.8029 109.356 13.4193 111.972 16.4718 111.972H56.1547H83.6275H123.31C126.363 111.972 128.979 109.356 128.979 106.303V32.3885C128.979 29.3359 126.363 26.7195 123.31 26.7195H16.4718C13.4193 26.7195 10.8029 29.3359 10.8029 32.3885ZM16.2538 33.4787C16.2538 32.8246 16.9079 32.1704 17.562 32.1704H122.002C122.656 32.1704 123.31 32.8246 123.31 33.4787V96.9277C123.31 97.5818 122.656 98.2359 122.002 98.2359H17.7801C17.1259 98.2359 16.4718 97.5818 16.4718 96.9277V33.4787H16.2538Z" fill="#2957FF"/>
<path d="M113.935 118.731C115.461 118.731 116.769 120.04 116.769 121.566C116.769 123.092 115.461 124.4 113.935 124.4C112.408 124.4 111.1 123.092 111.1 121.566C111.1 120.04 112.408 118.731 113.935 118.731Z" fill="#2957FF"/>
<path d="M53.5382 6.00592C55.0645 6.00592 56.3728 7.31419 56.3728 8.84045C56.3728 10.3667 55.0645 11.6749 53.5382 11.6749C52.012 11.6749 50.7038 10.3667 50.7038 8.84045C50.7038 7.31419 51.7939 6.00592 53.5382 6.00592Z" fill="#2957FF"/>
<path d="M119.386 11.4568C120.912 11.4568 122.22 12.7651 122.22 14.2914C122.22 15.8176 120.912 17.1258 119.386 17.1258C117.859 17.1258 116.551 15.8176 116.551 14.2914C116.551 12.7651 117.859 11.4568 119.386 11.4568Z" fill="#2957FF"/>
<path d="M86.4619 11.4568C87.9882 11.4568 89.2965 12.7651 89.2965 14.2914C89.2965 15.8176 87.9882 17.1258 86.4619 17.1258C84.9357 17.1258 83.6275 15.8176 83.6275 14.2914C83.6275 12.7651 84.9357 11.4568 86.4619 11.4568Z" fill="#2957FF"/>
<path d="M12.3291 14.0734C13.8554 14.0734 15.1637 15.3816 15.1637 16.9078C15.1637 18.4341 13.8554 19.7424 12.3291 19.7424C10.8029 19.7424 9.49466 18.4341 9.49466 16.9078C9.49466 15.3816 10.8029 14.0734 12.3291 14.0734Z" fill="#2957FF"/>
<path d="M130.506 120.258H122.22C121.566 120.258 120.912 120.912 120.912 121.566C120.912 122.22 121.566 122.874 122.22 122.874H130.506C131.16 122.874 131.814 122.22 131.814 121.566C131.814 120.912 131.16 120.258 130.506 120.258Z" fill="#2957FF"/>
<path d="M25.8475 118.731C27.3737 118.731 28.6819 120.04 28.6819 121.566C28.6819 123.092 27.3737 124.4 25.8475 124.4C24.3212 124.4 23.0129 123.092 23.0129 121.566C23.0129 120.04 24.3212 118.731 25.8475 118.731Z" fill="#2957FF"/>
<path d="M17.78 120.258H9.49464C8.84053 120.258 8.1864 120.912 8.1864 121.566C8.1864 122.22 8.84053 122.874 9.49464 122.874H17.78C18.4342 122.874 19.0883 122.22 19.0883 121.566C19.0883 120.912 18.4342 120.258 17.78 120.258Z" fill="#2957FF"/>
<path d="M30.2082 18.6521C33.2607 18.6521 35.6591 16.2537 35.6591 13.2012C35.6591 10.1487 33.2607 7.75024 30.2082 7.75024C27.1557 7.75024 24.7573 10.1487 24.7573 13.2012C24.5392 16.0357 26.9376 18.6521 30.2082 18.6521Z" fill="#2957FF"/>
</g>
<defs>
<clipPath id="clip0_1_297">
<rect width="140" height="140" fill="white"/>
</clipPath>
</defs>
</svg>
