<svg width="65" height="65" viewBox="0 0 65 65" fill="none" xmlns="http://www.w3.org/2000/svg">
<g clip-path="url(#clip0_1_586)">
<path d="M64.12 22.24L58 16.15V3C58 2.20435 57.6839 1.44129 57.1213 0.87868C56.5587 0.31607 55.7957 0 55 0L10 0C9.20435 0 8.44129 0.31607 7.87868 0.87868C7.31607 1.44129 7 2.20435 7 3V16.16L0.83 22.29C0.302355 22.8427 0.00549614 23.5759 0 24.34L0 62C0 62.7957 0.31607 63.5587 0.87868 64.1213C1.44129 64.6839 2.20435 65 3 65H62C62.7957 65 63.5587 64.6839 64.1213 64.1213C64.6839 63.5587 65 62.7957 65 62V24.34C65.0014 23.9489 64.9243 23.5614 64.7731 23.2007C64.622 22.84 64.3999 22.5133 64.12 22.24ZM58 20.31L59.36 21.67C59.7015 22.0257 59.8996 22.495 59.9162 22.9878C59.9328 23.4806 59.7668 23.9621 59.45 24.34L58 25.77V20.31ZM10 5C10 4.46957 10.2107 3.96086 10.5858 3.58579C10.9609 3.21071 11.4696 3 12 3H53C53.5304 3 54.0391 3.21071 54.4142 3.58579C54.7893 3.96086 55 4.46957 55 5V28.75L35.85 47.75C34.9583 48.6327 33.7547 49.1285 32.5 49.13C31.8782 49.132 31.2622 49.0111 30.6873 48.7742C30.1124 48.5374 29.59 48.1893 29.15 47.75L10 28.75V5ZM5.64 21.67L7 20.31V25.77L5.55 24.34C5.21301 23.9715 5.03372 23.4857 5.05054 22.9866C5.06736 22.4876 5.27896 22.015 5.64 21.67ZM3 26L20.31 43.18L3 60.35V26ZM5.55 62L22.43 45.29L27 49.85C28.4589 51.2852 30.4235 52.0895 32.47 52.0895C34.5165 52.0895 36.4811 51.2852 37.94 49.85L42.54 45.29L59.45 62H5.55ZM62 60.35L44.69 43.18L62 26V60.35Z" fill="#515483"/>
<path d="M41.5 34C41.8978 34 42.2794 33.8419 42.5607 33.5606C42.842 33.2793 43 32.8978 43 32.5C43 32.1021 42.842 31.7206 42.5607 31.4393C42.2794 31.158 41.8978 31 41.5 31H32.83C30.1299 31.039 27.5146 30.0575 25.5068 28.2518C23.4989 26.446 22.2466 23.9491 22 21.26C21.8863 19.7522 22.0995 18.2377 22.6252 16.82C23.1508 15.4022 23.9765 14.1148 25.0456 13.0456C26.1148 11.9764 27.4023 11.1508 28.82 10.6251C30.2377 10.0995 31.7522 9.88625 33.26 9.99997C35.9491 10.2466 38.4461 11.4989 40.2518 13.5067C42.0575 15.5145 43.039 18.1299 43 20.83V22.89C42.9999 23.5 42.8599 23.8624 42.556 24.2487C42.2522 24.6349 41.8214 24.901 41.34 25C41.0504 25.05 40.7533 25.0355 40.4699 24.9577C40.1865 24.8798 39.9238 24.7404 39.7003 24.5495C39.4769 24.3585 39.2983 24.1207 39.1773 23.8529C39.0563 23.585 38.9957 23.2938 39 23V20.78C39.0329 18.8385 38.3291 16.9566 37.0303 15.5131C35.7316 14.0696 33.9342 13.1716 32 13C30.9303 12.9259 29.8572 13.0821 28.8531 13.458C27.8489 13.8338 26.937 14.4206 26.1788 15.1788C25.4206 15.9369 24.8338 16.8489 24.458 17.853C24.0821 18.8572 23.926 19.9303 24 21C24.1714 22.9307 25.0665 24.7251 26.5058 26.0234C27.945 27.3217 29.8219 28.0278 31.76 28H33.5C33.8978 28 34.2794 27.8419 34.5607 27.5606C34.842 27.2793 35 26.8978 35 26.5C35 26.1021 34.842 25.7206 34.5607 25.4393C34.2794 25.158 33.8978 25 33.5 25H31.72C31.1026 25.0093 30.4896 24.8955 29.9167 24.6654C29.3438 24.4352 28.8224 24.0933 28.383 23.6595C27.9437 23.2257 27.5951 22.7088 27.3576 22.1388C27.1202 21.5689 26.9986 20.9574 27 20.34C27.0421 19.2024 27.5129 18.1228 28.3179 17.3178C29.1228 16.5129 30.2024 16.0421 31.34 16C31.9574 15.9986 32.5689 16.1201 33.1389 16.3576C33.7088 16.5951 34.2258 16.9436 34.6595 17.383C35.0933 17.8224 35.4353 18.3437 35.6654 18.9167C35.8956 19.4896 36.0093 20.1026 36 20.72V22.79C35.9753 24.0621 36.4225 25.2984 37.2553 26.2604C38.088 27.2224 39.2474 27.8421 40.51 28C41.2066 28.0686 41.9098 27.9902 42.5742 27.7698C43.2386 27.5494 43.8493 27.192 44.3668 26.7207C44.8843 26.2494 45.2971 25.6747 45.5784 25.0337C45.8597 24.3928 46.0034 23.6999 46 23V20.9C46.0378 17.2812 44.6484 13.7932 42.1328 11.1915C39.6173 8.58985 36.178 7.08394 32.56 6.99997C30.7774 6.99336 29.0112 7.33959 27.363 8.0187C25.7148 8.69781 24.2174 9.69639 22.9569 10.9569C21.6964 12.2173 20.6978 13.7148 20.0187 15.363C19.3396 17.0111 18.9934 18.7774 19 20.56C19.084 24.178 20.5899 27.6172 23.1916 30.1328C25.7933 32.6484 29.2812 34.0378 32.9 34H41.5Z" fill="#515483"/>
</g>
<defs>
<clipPath id="clip0_1_586">
<rect width="65" height="65" fill="white"/>
</clipPath>
</defs>
</svg>
