<svg width="65" height="66" viewBox="0 0 65 66" fill="none" xmlns="http://www.w3.org/2000/svg">
<path d="M36.7521 30.206L32.8433 28.28L28.9346 30.1494L29.5011 25.8441L26.4987 22.6718L30.804 21.9353L32.8433 18.0833L34.9393 21.9353L39.1879 22.7284L36.1856 25.8441L36.7521 30.206Z" stroke="#2957FF" stroke-width="1.41621" stroke-miterlimit="10" stroke-linejoin="round"/>
<path d="M20.8339 30.206L16.9251 28.28L13.0164 30.1494L13.5829 25.8441L10.5805 22.6718L14.8858 21.9353L16.9818 18.0833L19.0211 21.9353L23.2697 22.7284L20.2674 25.8441L20.8339 30.206Z" stroke="#2957FF" stroke-width="1.41621" stroke-miterlimit="10" stroke-linejoin="round"/>
<path d="M52.7836 30.206L48.8748 28.28L44.9661 30.1494L45.5892 25.8441L42.5302 22.6718L46.8355 21.9353L48.9315 18.0833L50.9708 21.9353L55.2195 22.7284L52.2171 25.8441L52.7836 30.206Z" stroke="#2957FF" stroke-width="1.41621" stroke-miterlimit="10" stroke-linejoin="round"/>
<path d="M25.7056 49.4664H5.48212V11.9651C5.48212 10.8322 6.38849 9.92578 7.52146 9.92578H58.3351C59.4681 9.92578 60.3744 10.8322 60.3744 11.9651V15.8172V43.1218V49.523H41.114" stroke="#2957FF" stroke-width="1.69945" stroke-miterlimit="10" stroke-linejoin="round"/>
<path d="M25.7057 52.7519H40.151V49.4663H62.6971C63.4335 49.4663 64 50.0328 64 50.7692V53.9982C64 55.5277 62.7538 56.774 61.2242 56.774H4.57582C3.04631 56.774 1.80005 55.5277 1.80005 53.9982V50.7692C1.80005 50.0328 2.36653 49.4663 3.10296 49.4663H25.649V52.7519H25.7057Z" stroke="#2957FF" stroke-width="1.69945" stroke-miterlimit="10" stroke-linejoin="round"/>
<path d="M40.151 49.4663H28.3681" stroke="#2957FF" stroke-width="1.69945" stroke-miterlimit="10" stroke-linejoin="round"/>
<path d="M44.343 36.5505H48.8748" stroke="#2957FF" stroke-width="1.41621" stroke-miterlimit="10" stroke-linejoin="round"/>
<path d="M38.9613 36.5505H42.1903" stroke="#2957FF" stroke-width="1.41621" stroke-miterlimit="10" stroke-linejoin="round"/>
<path d="M16.925 36.5505H36.3555" stroke="#2957FF" stroke-width="1.41621" stroke-miterlimit="10" stroke-linejoin="round"/>
<path d="M36.8087 42.2153H44.3429" stroke="#2957FF" stroke-width="1.41621" stroke-miterlimit="10" stroke-linejoin="round"/>
<path d="M30.5775 42.2153H35.1093" stroke="#2957FF" stroke-width="1.41621" stroke-miterlimit="10" stroke-linejoin="round"/>
<path d="M21.5137 42.2153H28.3682" stroke="#2957FF" stroke-width="1.41621" stroke-miterlimit="10" stroke-linejoin="round"/>
</svg>
