<svg width="40" height="40" viewBox="0 0 40 40" fill="none" xmlns="http://www.w3.org/2000/svg">
<path d="M20 0C16.0444 0 12.1776 1.17298 8.8886 3.37061C5.59962 5.56824 3.03617 8.69181 1.52242 12.3463C0.00866568 16.0009 -0.387401 20.0222 0.384303 23.9018C1.15601 27.7814 3.06082 31.3451 5.85787 34.1421C8.65492 36.9392 12.2186 38.844 16.0982 39.6157C19.9778 40.3874 23.9992 39.9913 27.6537 38.4776C31.3082 36.9638 34.4318 34.4004 36.6294 31.1114C38.827 27.8224 40 23.9556 40 20C40 14.6957 37.8929 9.60859 34.1421 5.85786C30.3914 2.10714 25.3043 0 20 0V0ZM20 37C16.6377 37 13.351 36.003 10.5553 34.135C7.75968 32.267 5.58075 29.612 4.29406 26.5056C3.00737 23.3993 2.67071 19.9811 3.32666 16.6835C3.98261 13.3858 5.6017 10.3567 7.97919 7.97918C10.3567 5.60169 13.3858 3.9826 16.6835 3.32665C19.9812 2.6707 23.3993 3.00736 26.5056 4.29405C29.612 5.58074 32.267 7.75967 34.135 10.5553C36.003 13.3509 37 16.6377 37 20C37 24.5087 35.2089 28.8327 32.0208 32.0208C28.8327 35.2089 24.5087 37 20 37Z" fill="#000000"/>
<path d="M19.65 13.44C19.354 13.1564 18.9599 12.998 18.55 12.998C18.1401 12.998 17.746 13.1564 17.45 13.44C17.3072 13.5771 17.1936 13.7417 17.116 13.9239C17.0385 14.106 16.9985 14.302 16.9985 14.5C16.9985 14.6979 17.0385 14.8939 17.116 15.076C17.1936 15.2582 17.3072 15.4228 17.45 15.56L22 20L17.49 24.36C17.1988 24.6246 17.0199 24.9907 16.9902 25.3831C16.9604 25.7755 17.082 26.1644 17.33 26.47C17.4777 26.6371 17.6594 26.7707 17.8629 26.8621C18.0663 26.9535 18.2869 27.0005 18.51 27C18.9194 26.9994 19.3131 26.842 19.61 26.56L25.66 20.71C25.7537 20.617 25.8281 20.5064 25.8789 20.3845C25.9296 20.2627 25.9558 20.132 25.9558 20C25.9558 19.8679 25.9296 19.7372 25.8789 19.6154C25.8281 19.4935 25.7537 19.3829 25.66 19.29L19.65 13.44Z" fill="#000000"/>
</svg>
