<svg width="140" height="140" viewBox="0 0 140 140" fill="none" xmlns="http://www.w3.org/2000/svg">
<g clip-path="url(#clip0_1_298)">
<path d="M71.8533 89.0783C71.6353 88.8603 71.1992 88.6422 70.7631 88.4242V91.0407C71.8533 91.0407 72.5074 90.6046 72.5074 89.9505C72.2894 89.5144 72.0713 89.2964 71.8533 89.0783Z" fill="#2957FF"/>
<path d="M68.1467 83.1913C68.1467 83.6273 68.3647 83.8454 68.5828 84.0634C68.8008 84.2814 69.2369 84.4995 69.6729 84.7176V82.1011C68.5828 82.1011 68.1467 82.3191 68.1467 83.1913Z" fill="#2957FF"/>
<path d="M52.2299 118.731C52.2299 121.566 54.4103 123.746 57.2448 123.746H58.9891H81.0109H82.7552C85.5897 123.746 87.77 121.566 87.77 118.731V115.461H52.2299V118.731Z" fill="#2957FF"/>
<path d="M69.891 74.2517C63.1318 74.2517 57.4628 79.7027 57.4628 86.6799C57.4628 93.4391 62.9137 99.108 69.891 99.108C76.8682 99.108 82.3191 93.6571 82.3191 86.6799C82.1011 79.7027 76.6501 74.2517 69.891 74.2517ZM75.5599 91.6947C75.3419 92.3488 74.9058 92.7849 74.4697 93.003C74.0337 93.439 73.3795 93.6571 72.7254 93.8751C72.2894 94.0931 71.6353 94.3112 70.7631 94.3112V96.7096H69.2368V94.3112C68.1466 94.3112 67.2745 94.0931 66.4024 93.657C65.5302 93.439 64.658 93.003 63.7859 92.3489L65.3122 89.2963C65.3122 89.2963 65.5302 89.5144 65.7482 89.7324C65.9663 89.9504 66.4024 90.1685 66.6204 90.1685C67.0565 90.3865 67.4925 90.6045 67.9286 90.6045C68.3647 90.8226 69.0188 90.8226 69.4549 91.0406V88.2061L68.3647 87.9881C67.7106 87.7701 67.0565 87.552 66.6204 87.334C66.1843 87.1159 65.7482 86.8979 65.3122 86.4618C64.8761 86.0258 64.658 85.8077 64.658 85.3716C64.44 84.9356 64.44 84.4995 64.44 83.8454C64.44 83.1912 64.658 82.5371 64.8761 81.883C65.0941 81.2289 65.5302 80.7929 65.9663 80.3568C66.4023 79.9207 66.8384 79.7026 67.4925 79.4846C68.1467 79.2666 68.8008 79.0486 69.4549 79.0486V76.8682H70.9811V79.0486C71.8533 79.0486 72.7254 79.2666 73.5976 79.7027C74.4697 80.1387 75.1238 80.3568 75.778 80.7928L74.0337 83.4093C74.0337 83.4093 73.8156 83.1913 73.5976 83.1913C73.3795 82.9732 73.1615 82.9732 72.7254 82.7552C72.5074 82.5371 72.0713 82.5372 71.6352 82.3191C71.1992 82.1011 70.7631 82.1011 70.5451 82.1011V84.9355L71.1992 85.1536C71.8533 85.3716 72.5074 85.5897 73.1615 85.8077C73.8156 86.0258 74.2517 86.2438 74.6878 86.6799C75.1238 87.116 75.3419 87.552 75.5599 87.9881C75.778 88.4242 75.996 89.0783 75.996 89.7324C75.996 90.3865 75.996 91.0406 75.5599 91.6947Z" fill="#2957FF"/>
<path d="M70.109 35.8771C64.8761 35.8771 60.5154 40.2379 60.5154 45.4708C60.5154 50.7037 64.8761 55.0644 70.109 55.0644C75.3419 55.0644 79.7027 50.7037 79.7027 45.4708C79.7027 40.0198 75.3419 35.8771 70.109 35.8771Z" fill="#2957FF"/>
<path d="M60.2973 126.799C60.2973 129.633 62.6957 132.032 65.5302 132.032H74.2517C77.0862 132.032 79.4846 129.633 79.4846 126.799V126.581H60.2973V126.799Z" fill="#2957FF"/>
<path d="M27.3736 94.9653V107.393H43.9445V77.0862C34.5689 77.7404 27.3736 85.5897 27.3736 94.9653Z" fill="#2957FF"/>
<path d="M96.2735 76.8682V107.175H112.844V94.7473C112.626 85.5897 105.431 77.7404 96.2735 76.8682Z" fill="#2957FF"/>
<path d="M70.109 8.62238L55.7185 23.0129C49.8315 28.8999 46.5609 36.9673 46.5609 45.2527V60.7334H56.1546C56.8087 60.7334 57.4628 61.3875 57.4628 62.0416C57.4628 62.6957 56.8087 63.3498 56.1546 63.3498H46.5609V75.778V108.702V112.844H50.7037H89.2963H93.439V108.702V75.778V63.3498H83.8454C83.1913 63.3498 82.5372 62.6957 82.5372 62.0416C82.5372 61.3875 83.1913 60.7334 83.8454 60.7334H93.439V45.2527C93.439 36.9673 90.1685 28.8999 84.2815 23.0129L70.109 8.62238ZM84.9356 86.6799C84.9356 94.9653 78.1764 101.943 69.6729 101.943C61.3875 101.943 54.4103 95.1834 54.4103 86.6799C54.4103 78.3945 61.1695 71.4173 69.6729 71.4173C78.1764 71.4173 84.9356 78.1764 84.9356 86.6799ZM70.109 57.6809C63.3498 57.6809 57.6809 52.2299 57.6809 45.2527C57.6809 38.4936 63.1318 32.8246 70.109 32.8246C76.8682 32.8246 82.5372 38.2755 82.5372 45.2527C82.3191 52.2299 76.8682 57.6809 70.109 57.6809Z" fill="#2957FF"/>
<path d="M100.416 120.912C99.7621 120.912 99.108 121.566 99.108 122.22V130.505C99.108 131.16 99.7621 131.814 100.416 131.814C101.07 131.814 101.724 131.16 101.724 130.505V122.22C101.724 121.566 101.07 120.912 100.416 120.912Z" fill="#2957FF"/>
<path d="M108.484 115.461C107.829 115.461 107.175 116.115 107.175 116.769V122.22C107.175 122.874 107.829 123.528 108.484 123.528C109.138 123.528 109.792 122.874 109.792 122.22V116.769C109.792 116.115 109.138 115.461 108.484 115.461Z" fill="#2957FF"/>
<path d="M116.987 120.912C116.333 120.912 115.679 121.566 115.679 122.22V133.122C115.679 133.776 116.333 134.43 116.987 134.43C117.641 134.43 118.295 133.776 118.295 133.122V122.22C118.295 121.566 117.641 120.912 116.987 120.912Z" fill="#2957FF"/>
<path d="M23.4489 120.912C22.7948 120.912 22.1407 121.566 22.1407 122.22V130.505C22.1407 131.16 22.7948 131.814 23.4489 131.814C24.1031 131.814 24.7572 131.16 24.7572 130.505V122.22C24.7572 121.566 24.1031 120.912 23.4489 120.912Z" fill="#2957FF"/>
<path d="M31.5163 115.461C30.8622 115.461 30.2081 116.115 30.2081 116.769V122.22C30.2081 122.874 30.8622 123.528 31.5163 123.528C32.1705 123.528 32.8246 122.874 32.8246 122.22V116.769C32.8246 116.115 32.1705 115.461 31.5163 115.461Z" fill="#2957FF"/>
<path d="M39.8018 120.912C39.1477 120.912 38.4936 121.566 38.4936 122.22V133.122C38.4936 133.776 39.1477 134.43 39.8018 134.43C40.4559 134.43 41.11 133.776 41.11 133.122V122.22C41.11 121.566 40.4559 120.912 39.8018 120.912Z" fill="#2957FF"/>
<path d="M20.6145 57.6808C16.9078 57.6808 13.8553 60.7334 13.8553 64.44C13.8553 68.1467 16.9078 71.1992 20.6145 71.1992C24.3211 71.1992 27.3736 68.1467 27.3736 64.44C27.3736 60.7334 24.3211 57.6808 20.6145 57.6808Z" fill="#2957FF"/>
<path d="M30.2081 24.7572C33.2606 24.7572 35.6591 22.3588 35.6591 19.3063C35.6591 16.2538 33.2606 13.8553 30.2081 13.8553C27.1556 13.8553 24.7572 16.2538 24.7572 19.3063C24.7572 22.3588 27.1556 24.7572 30.2081 24.7572Z" fill="#2957FF"/>
<path d="M126.363 46.7789C126.363 42.2001 122.656 38.4935 118.077 38.4935C113.498 38.4935 109.792 42.2001 109.792 46.7789C109.792 51.3577 113.498 55.0644 118.077 55.0644C122.656 55.0644 126.363 51.1397 126.363 46.7789Z" fill="#2957FF"/>
<path d="M127.889 23.2309C129.415 23.2309 130.723 24.5391 130.723 26.0654C130.723 27.5916 129.415 28.8999 127.889 28.8999C126.363 28.8999 125.054 27.5916 125.054 26.0654C125.054 24.5391 126.363 23.2309 127.889 23.2309Z" fill="#2957FF"/>
<path d="M125.054 72.7255C126.581 72.7255 127.889 74.0337 127.889 75.5599C127.889 77.0862 126.581 78.3944 125.054 78.3944C123.528 78.3944 122.22 77.0862 122.22 75.5599C122.22 74.0337 123.528 72.7255 125.054 72.7255Z" fill="#2957FF"/>
<path d="M103.033 56.1546C104.559 56.1546 105.867 57.4628 105.867 58.9891C105.867 60.5153 104.559 61.8236 103.033 61.8236C101.506 61.8236 100.198 60.5153 100.198 58.9891C100.198 57.4628 101.506 56.1546 103.033 56.1546Z" fill="#2957FF"/>
<path d="M97.5817 6.66003C99.108 6.66003 100.416 7.9683 100.416 9.49456C100.416 11.0208 99.108 12.329 97.5817 12.329C96.0555 12.329 94.7473 11.0208 94.7473 9.49456C94.7473 7.9683 96.0555 6.66003 97.5817 6.66003Z" fill="#2957FF"/>
<path d="M45.4707 9.49457C46.997 9.49457 48.3052 10.8028 48.3052 12.329C48.3052 13.8553 46.997 15.1635 45.4707 15.1635C43.9445 15.1635 42.6363 13.8553 42.6363 12.329C42.6363 10.8028 43.7264 9.49457 45.4707 9.49457Z" fill="#2957FF"/>
<path d="M31.5163 34.1328C33.0426 34.1328 34.3508 35.441 34.3508 36.9673C34.3508 38.4935 33.0426 39.8018 31.5163 39.8018C29.9901 39.8018 28.6819 38.4935 28.6819 36.9673C28.6819 35.441 29.9901 34.1328 31.5163 34.1328Z" fill="#2957FF"/>
<path d="M12.329 81.0109C13.8553 81.0109 15.1635 82.3191 15.1635 83.8453C15.1635 85.3716 13.8553 86.6799 12.329 86.6799C10.8028 86.6799 9.49454 85.3716 9.49454 83.8453C9.49454 82.3191 10.8028 81.0109 12.329 81.0109Z" fill="#2957FF"/>
</g>
<defs>
<clipPath id="clip0_1_298">
<rect width="140" height="140" fill="white"/>
</clipPath>
</defs>
</svg>
