<svg width="24" height="24" viewBox="0 0 24 24" fill="none" xmlns="http://www.w3.org/2000/svg">
<g clip-path="url(#clip0)">
<path d="M12 0C9.62663 0 7.30655 0.703788 5.33316 2.02236C3.35977 3.34094 1.8217 5.21509 0.913451 7.4078C0.00519961 9.60051 -0.232441 12.0133 0.230582 14.3411C0.693605 16.6689 1.83649 18.8071 3.51472 20.4853C5.19295 22.1635 7.33115 23.3064 9.65892 23.7694C11.9867 24.2324 14.3995 23.9948 16.5922 23.0866C18.7849 22.1783 20.6591 20.6402 21.9776 18.6668C23.2962 16.6935 24 14.3734 24 12C24 8.8174 22.7357 5.76515 20.4853 3.51472C18.2348 1.26428 15.1826 0 12 0ZM12 22C10.0222 22 8.08879 21.4135 6.4443 20.3147C4.79981 19.2159 3.51809 17.6541 2.76121 15.8268C2.00433 13.9996 1.8063 11.9889 2.19215 10.0491C2.578 8.10929 3.53041 6.32746 4.92894 4.92893C6.32746 3.53041 8.10929 2.578 10.0491 2.19215C11.9889 1.8063 13.9996 2.00433 15.8268 2.7612C17.6541 3.51808 19.2159 4.79981 20.3147 6.4443C21.4135 8.08879 22 10.0222 22 12C22 14.6522 20.9464 17.1957 19.0711 19.0711C17.1957 20.9464 14.6522 22 12 22Z" fill="#C27777"/>
<path d="M6.847 17.979C7.02014 17.9788 7.18907 17.9266 7.33112 17.8297C7.47317 17.7327 7.58158 17.5955 7.64185 17.4364C7.93967 16.6239 8.48791 15.9225 9.21063 15.429C9.93344 14.9356 10.795 14.6746 11.6759 14.6823C12.557 14.69 13.4138 14.9659 14.1279 15.4719C14.8419 15.9779 15.3778 16.6889 15.6614 17.5064C15.7189 17.6665 15.8249 17.8056 15.9652 17.9051C16.1055 18.0044 16.2735 18.0595 16.4466 18.0628C16.5844 18.0636 16.7202 18.0315 16.8425 17.9695C16.9648 17.9074 17.0698 17.817 17.1486 17.7063C17.2273 17.5955 17.2773 17.4677 17.2944 17.3338C17.3115 17.1999 17.2951 17.0639 17.2466 16.9375C16.8397 15.8088 16.0882 14.8302 15.0941 14.1345C14.1 13.4389 12.9115 13.0599 11.6902 13.0493C10.4689 13.0386 9.27408 13.3968 8.26794 14.075C7.26188 14.7531 6.49333 15.7185 6.06682 16.8399C6.01619 16.9654 5.99734 17.1011 6.01214 17.2353C6.02685 17.3696 6.07467 17.4982 6.15142 17.6104C6.22818 17.7224 6.33162 17.8146 6.45281 17.8788C6.574 17.943 6.70929 17.9774 6.847 17.979Z" fill="#C27777"/>
<path d="M8.5 10C9.32843 10 10 9.32843 10 8.5C10 7.67157 9.32843 7 8.5 7C7.67157 7 7 7.67157 7 8.5C7 9.32843 7.67157 10 8.5 10Z" fill="#C27777"/>
<path d="M15.5 10C16.3284 10 17 9.32843 17 8.5C17 7.67157 16.3284 7 15.5 7C14.6716 7 14 7.67157 14 8.5C14 9.32843 14.6716 10 15.5 10Z" fill="#C27777"/>
</g>
<defs>
<clipPath id="clip0">
<rect width="24" height="24" fill="white"/>
</clipPath>
</defs>
</svg>
