<?xml version="1.0" encoding="UTF-8"?>
<svg xmlns="http://www.w3.org/2000/svg" xmlns:xlink="http://www.w3.org/1999/xlink" width="1172px" height="480px" viewBox="0 0 878 360" version="1.1">
<g id="surface1">
<path style=" stroke:none;fill-rule:evenodd;fill:rgb(30.196078%,30.196078%,30.196078%);fill-opacity:1;" d="M 333.804688 6.179688 L 847.355469 6.179688 C 864.449219 6.179688 878.304688 20.042969 878.304688 37.144531 L 878.304688 323.597656 C 878.304688 340.699219 864.449219 354.5625 847.355469 354.5625 L 333.804688 354.5625 C 316.710938 354.5625 302.851562 340.699219 302.851562 323.597656 L 302.851562 37.144531 C 302.851562 20.042969 316.710938 6.179688 333.804688 6.179688 Z M 333.804688 6.179688 "/>
<path style=" stroke:none;fill-rule:evenodd;fill:rgb(99.607843%,99.607843%,99.607843%);fill-opacity:1;" d="M 329.378906 0 L 31.015625 0 C 13.957031 0 0 13.964844 0 31.03125 L 0 328.9375 C 0 346.003906 13.957031 359.96875 31.015625 359.96875 L 329.378906 359.96875 C 346.4375 359.96875 360.394531 346.003906 360.394531 328.9375 L 360.394531 31.03125 C 360.394531 13.964844 346.4375 0 329.378906 0 Z M 329.378906 0 "/>
<path style=" stroke:none;fill-rule:evenodd;fill:rgb(93.72549%,70.196078%,6.27451%);fill-opacity:1;" d="M 324.792969 6.234375 L 34.078125 6.234375 C 18.753906 6.234375 6.214844 18.777344 6.214844 34.109375 L 6.214844 325.859375 C 6.214844 341.191406 18.753906 353.734375 34.078125 353.734375 L 324.792969 353.734375 C 340.121094 353.734375 352.65625 341.191406 352.65625 325.859375 L 352.65625 34.109375 C 352.65625 18.777344 340.121094 6.234375 324.792969 6.234375 Z M 324.792969 6.234375 "/>
<path style=" stroke:none;fill-rule:evenodd;fill:rgb(0%,0%,0%);fill-opacity:1;" d="M 39.816406 221.03125 L 39.816406 121.8125 L 22.003906 125.535156 L 22.003906 225.226562 Z M 39.816406 221.03125 "/>
<path style=" stroke:none;fill-rule:nonzero;fill:rgb(0%,0%,0%);fill-opacity:1;" d="M 66.96875 204.785156 L 66.96875 174.707031 C 66.984375 171.957031 67.851562 168.496094 69.75 165.984375 C 72.738281 162.042969 79.628906 159.707031 81.496094 165.519531 C 82.328125 168.113281 82.222656 169.59375 82.222656 172.207031 L 82.222656 211.039062 L 99.253906 207.027344 L 99.253906 162.171875 C 99.253906 157.941406 98.566406 154.625 97.199219 152.210938 C 95.839844 149.8125 93.859375 148.234375 91.304688 147.515625 C 88.722656 146.792969 85.625 146.773438 82.011719 147.625 C 75.378906 149.1875 69.664062 153.804688 66.277344 159.953125 L 66.027344 160.007812 L 66.027344 153.164062 L 49.824219 156.976562 L 49.667969 202.015625 C 51.640625 201.136719 53.929688 200.691406 56.21875 200.691406 C 59.734375 200.691406 63.957031 202.28125 66.96875 204.785156 Z M 66.96875 204.785156 "/>
<path style=" stroke:none;fill-rule:nonzero;fill:rgb(0%,0%,0%);fill-opacity:1;" d="M 112.3125 142.304688 L 103.785156 144.09375 L 103.785156 156.992188 L 112.203125 154.898438 C 112.449219 169.039062 111.066406 188 113.777344 201.183594 C 113.949219 202.027344 114.207031 202.773438 114.527344 203.429688 L 132.808594 199.125 C 132.726562 199.027344 132.640625 198.914062 132.570312 198.78125 C 130.121094 194.3125 129.53125 188.839844 129.527344 183.867188 L 129.488281 150.921875 L 141.65625 148.035156 L 141.65625 135.289062 L 129.488281 138.101562 L 129.527344 124.222656 L 112.203125 128.351562 Z M 112.3125 142.304688 "/>
<path style=" stroke:none;fill-rule:nonzero;fill:rgb(0%,0%,0%);fill-opacity:1;" d="M 194.058594 157.285156 C 194.203125 146.226562 194.839844 129.453125 180.644531 126.785156 C 177.445312 126.183594 173.710938 126.101562 168.816406 127.265625 C 164.28125 128.347656 160.472656 129.84375 157.375 131.726562 C 154.269531 133.613281 152.371094 135.875 150.472656 138.371094 C 148.570312 140.867188 147.113281 143.59375 146.132812 146.539062 C 145.15625 149.476562 144.398438 152.484375 144.082031 155.707031 C 143.761719 158.921875 143.371094 162.195312 143.433594 165.527344 C 143.492188 168.640625 143.546875 171.753906 143.839844 174.824219 C 144.300781 179.664062 146.46875 186.847656 150.292969 190.054688 C 152.433594 191.847656 154.5625 193 157.210938 193.527344 C 160.398438 194.164062 164.457031 193.789062 169.3125 192.632812 C 174.601562 191.371094 179.488281 189.511719 182.914062 186.953125 C 186.34375 184.390625 189.140625 181.242188 190.832031 177.484375 C 192.527344 173.726562 192.980469 169.046875 193.074219 164.1875 L 177.433594 167.878906 C 178.09375 171.320312 176.234375 179.046875 169.140625 179.867188 C 160.679688 180.84375 160.449219 171.714844 160.769531 164.910156 Z M 160.804688 154.566406 C 160.746094 151.558594 160.867188 151.429688 161.320312 148.78125 C 161.578125 147.273438 162.011719 145.828125 162.652344 144.46875 C 163.292969 143.113281 164.164062 141.949219 165.273438 140.953125 C 166.382812 139.957031 167.78125 139.246094 169.457031 138.839844 C 171.761719 138.28125 173.472656 138.511719 174.738281 139.316406 C 177.042969 140.785156 177.496094 144.089844 177.621094 146.511719 C 177.6875 147.78125 177.707031 149.15625 177.671875 150.601562 Z M 160.804688 154.566406 "/>
<path style=" stroke:none;fill-rule:nonzero;fill:rgb(0%,0%,0%);fill-opacity:1;" d="M 200.472656 183.640625 L 217.507812 179.664062 L 217.507812 146.175781 C 217.710938 140.359375 218.835938 135.289062 223.046875 131.867188 C 224.125 130.992188 226.332031 129.894531 228.359375 129.179688 C 230.6875 128.359375 232.476562 128.347656 234.894531 128.148438 C 234.988281 128.140625 235.082031 128.121094 235.179688 128.105469 L 235.179688 127.886719 L 235.105469 112.183594 C 230.082031 111.933594 225.675781 113.914062 222.0625 117.730469 C 220.058594 119.84375 218.25 122.441406 216.789062 125.726562 L 216.539062 125.78125 L 216.617188 117.617188 L 200.472656 121.496094 Z M 200.472656 183.640625 "/>
<path style=" stroke:none;fill-rule:nonzero;fill:rgb(0%,0%,0%);fill-opacity:1;" d="M 255.015625 127.980469 L 255.015625 126.277344 C 255.015625 124.667969 255.253906 122.996094 255.855469 121.683594 C 256.457031 120.367188 257.332031 119.246094 258.515625 118.34375 C 259.699219 117.445312 260.925781 116.679688 262.695312 116.457031 C 265.925781 116.058594 268.109375 116.011719 269.226562 119.757812 C 269.402344 120.355469 269.398438 121.042969 269.398438 121.78125 C 269.398438 123.136719 269.191406 124.332031 268.753906 125.34375 C 268.316406 126.355469 267.585938 127.269531 266.59375 128.078125 C 265.59375 128.894531 264.785156 129.644531 263.066406 130.390625 L 253.230469 134.667969 C 250.257812 135.960938 247.726562 137.457031 245.585938 138.941406 C 243.449219 140.425781 241.679688 142.0625 240.3125 143.84375 C 238.941406 145.628906 237.835938 147.714844 237.183594 149.964844 C 236.527344 152.226562 236.394531 155.199219 236.394531 158.113281 C 236.394531 160.21875 236.929688 162.214844 237.507812 164.160156 C 238.089844 166.125 239.226562 167.566406 240.496094 169.023438 C 241.761719 170.480469 243.464844 171.800781 245.539062 172.40625 C 247.617188 173.015625 250.503906 173.402344 253.496094 172.792969 C 256.21875 172.238281 258.625 171.519531 260.683594 170.628906 C 262.761719 169.726562 264.609375 168.515625 266.210938 167.011719 C 267.808594 165.503906 269.394531 163.363281 270.703125 160.960938 L 270.933594 160.925781 C 271.164062 161.933594 271.304688 162.703125 271.617188 163.765625 C 271.925781 164.828125 272.363281 165.792969 272.902344 166.675781 L 288.609375 162.980469 C 288.027344 161.9375 287.476562 161.160156 287.164062 160.113281 C 286.855469 159.070312 286.65625 157.867188 286.542969 156.546875 C 286.429688 155.214844 286.160156 153.445312 286.152344 151.546875 L 286 119.1875 C 285.988281 116.398438 285.367188 113.859375 284.710938 111.699219 C 284.058594 109.539062 282.714844 107.796875 280.988281 106.476562 C 279.265625 105.152344 277.691406 104.390625 274.492188 104.144531 C 271.292969 103.898438 267.253906 104.132812 262.183594 105.175781 C 258.921875 105.847656 255.757812 107.011719 252.929688 108.269531 C 250.089844 109.527344 247.738281 111.417969 245.578125 113.347656 C 243.421875 115.277344 241.878906 118.257812 240.660156 120.953125 C 239.449219 123.636719 239.113281 126.835938 239.113281 130.363281 L 239.113281 131.839844 Z M 269.023438 148.085938 C 268.996094 149.792969 268.300781 151.398438 267.652344 152.738281 C 267.316406 153.433594 266.933594 154.078125 266.492188 154.664062 C 264.0625 157.871094 258.613281 160.535156 255.023438 157.785156 C 254.464844 157.355469 254.042969 156.769531 253.746094 156.011719 C 252.648438 153.230469 253.199219 149.296875 254.886719 146.921875 C 255.128906 146.582031 255.371094 146.238281 255.613281 145.894531 C 257.59375 143.84375 260.101562 142.324219 262.980469 141.171875 C 263.0625 141.140625 263.785156 140.773438 264.707031 140.214844 C 266.5625 139.097656 269.238281 137.371094 269.210938 137.25 Z M 269.023438 148.085938 "/>
<path style=" stroke:none;fill-rule:nonzero;fill:rgb(0%,0%,0%);fill-opacity:1;" d="M 343.554688 110.425781 C 343.511719 105.503906 343.230469 101.21875 341.570312 97.917969 C 339.96875 94.734375 337.730469 92.546875 333.9375 91.386719 C 330.277344 90.265625 325.742188 90.347656 320.371094 91.496094 C 316.339844 92.359375 312.511719 93.496094 309.160156 95.277344 C 305.8125 97.058594 302.753906 99.566406 300.308594 102.582031 C 297.875 105.589844 296.25 109.429688 294.9375 113.972656 C 293.621094 118.515625 293.355469 123.972656 293.402344 130.34375 C 293.445312 136.578125 294.238281 141.554688 295.355469 145.546875 C 296.46875 149.535156 298.058594 152.492188 300.25 154.527344 C 302.433594 156.554688 304.683594 157.90625 307.964844 158.289062 C 311.230469 158.667969 315.058594 158.347656 319.429688 157.371094 C 325.578125 155.996094 330.050781 153.890625 333.765625 150.957031 C 342.347656 144.183594 343.488281 135.386719 343.46875 125.578125 L 327.183594 129.335938 C 326.9375 134.460938 327.722656 139.53125 323.019531 142.855469 C 322.148438 143.46875 321.089844 143.816406 319.945312 144.070312 C 317.34375 144.640625 315.382812 144.351562 314.011719 143.152344 C 312.628906 141.941406 312.046875 139.722656 311.535156 136.625 C 311.019531 133.53125 310.941406 131.65625 310.898438 126.539062 C 310.867188 122.953125 310.945312 119.796875 311.171875 117.078125 C 311.402344 114.339844 311.949219 112.015625 312.640625 110.109375 C 313.824219 106.859375 316.910156 103.734375 320.367188 103.085938 C 325.179688 102.183594 326.394531 105.074219 326.921875 109.164062 C 327.121094 110.722656 327.199219 112.261719 327.121094 113.027344 C 327.082031 113.421875 327.121094 113.820312 327.121094 114.21875 Z M 343.554688 110.425781 "/>
<path style=" stroke:none;fill-rule:nonzero;fill:rgb(0%,0%,0%);fill-opacity:1;" d="M 331.554688 68.773438 L 332.71875 68.773438 C 333.277344 68.773438 333.699219 68.917969 333.988281 69.21875 C 334.28125 69.511719 334.429688 69.960938 334.429688 70.554688 C 334.429688 71.011719 334.355469 71.382812 334.210938 71.667969 C 334.070312 71.949219 333.859375 72.15625 333.582031 72.285156 C 333.308594 72.414062 332.972656 72.480469 332.578125 72.480469 L 331.554688 72.480469 Z M 329.085938 79.710938 L 331.554688 79.710938 L 331.554688 74.277344 L 332.871094 74.277344 C 333.363281 74.28125 333.726562 74.425781 333.957031 74.710938 C 334.1875 74.992188 334.3125 75.386719 334.324219 75.898438 L 334.394531 78.359375 C 334.398438 78.617188 334.421875 78.859375 334.464844 79.089844 C 334.503906 79.320312 334.585938 79.527344 334.703125 79.710938 L 337.371094 79.710938 L 337.371094 79.601562 C 337.222656 79.519531 337.105469 79.382812 337.03125 79.191406 C 336.953125 79.003906 336.898438 78.75 336.871094 78.4375 C 336.84375 78.128906 336.828125 77.75 336.824219 77.300781 C 336.820312 76.621094 336.789062 76.046875 336.738281 75.574219 C 336.6875 75.097656 336.59375 74.710938 336.457031 74.40625 C 336.320312 74.105469 336.125 73.871094 335.867188 73.707031 C 335.609375 73.542969 335.273438 73.433594 334.855469 73.378906 L 334.855469 73.34375 C 335.320312 73.238281 335.699219 73.046875 336 72.765625 C 336.300781 72.484375 336.527344 72.125 336.671875 71.6875 C 336.820312 71.253906 336.894531 70.75 336.894531 70.175781 C 336.890625 69.445312 336.757812 68.832031 336.5 68.339844 C 336.238281 67.851562 335.867188 67.484375 335.382812 67.234375 C 334.898438 66.988281 334.316406 66.867188 333.640625 66.867188 L 329.085938 66.867188 Z M 329.085938 79.710938 "/>
<path style=" stroke:none;fill-rule:evenodd;fill:rgb(0%,0%,0%);fill-opacity:1;" d="M 332.992188 62.359375 C 327.136719 62.359375 322.390625 67.125 322.390625 73 C 322.390625 78.878906 327.136719 83.644531 332.992188 83.644531 C 338.847656 83.644531 343.59375 78.878906 343.59375 73 C 343.59375 67.125 338.847656 62.359375 332.992188 62.359375 Z M 332.992188 63.65625 C 327.851562 63.65625 323.683594 67.839844 323.683594 73 C 323.683594 78.164062 327.851562 82.347656 332.992188 82.347656 C 338.132812 82.347656 342.300781 78.164062 342.300781 73 C 342.300781 67.839844 338.132812 63.65625 332.992188 63.65625 Z M 332.992188 63.65625 "/>
<path style=" stroke:none;fill-rule:evenodd;fill:rgb(0%,0%,0%);fill-opacity:1;" d="M 106.347656 340.484375 L 73.402344 340.484375 C 73.074219 340.511719 72.71875 340.519531 72.324219 340.523438 C 68.886719 340.558594 64.152344 338.789062 59.953125 336.683594 C 46.9375 330.171875 44.683594 316.566406 44.683594 303.832031 L 44.683594 217.328125 C 44.683594 211.144531 49.738281 206.085938 55.921875 206.085938 C 62.101562 206.085938 67.019531 211.148438 67.160156 217.328125 C 67.511719 232.773438 66.039062 257.230469 67.171875 270.605469 C 67.332031 272.503906 68.640625 273.203125 69.722656 273.160156 C 70.730469 273.121094 71.707031 272.503906 71.867188 270.953125 C 72.75 262.425781 71.300781 238.105469 71.882812 226.890625 C 80.695312 232.917969 89.46875 238.757812 98.351562 244.652344 C 103.984375 248.390625 106.6875 251.332031 106.6875 261.703125 Z M 106.347656 340.484375 "/>
<path style=" stroke:none;fill-rule:evenodd;fill:rgb(0%,0%,0%);fill-opacity:1;" d="M 40.046875 226.417969 L 19.003906 231.339844 L 17.210938 231.761719 C 16.371094 231.96875 15.839844 232.660156 15.46875 233.523438 C 13.757812 237.519531 15.128906 242.722656 18.492188 245.421875 C 20.691406 247.1875 23.789062 247.929688 27.574219 247.042969 L 40.046875 244.144531 Z M 40.046875 226.417969 "/>
<path style=" stroke:none;fill-rule:evenodd;fill:rgb(0%,0%,0%);fill-opacity:1;" d="M 40.046875 249.355469 L 19.003906 254.277344 L 17.210938 254.699219 C 16.371094 254.90625 15.839844 255.59375 15.46875 256.460938 C 13.757812 260.453125 15.128906 265.65625 18.492188 268.359375 C 20.691406 270.125 23.789062 270.867188 27.574219 269.980469 L 40.046875 267.082031 Z M 40.046875 249.355469 "/>
<path style=" stroke:none;fill-rule:evenodd;fill:rgb(0%,0%,0%);fill-opacity:1;" d="M 40.046875 272.140625 L 19.003906 277.066406 L 17.210938 277.484375 C 16.371094 277.695312 15.839844 278.382812 15.46875 279.246094 C 13.757812 283.242188 15.128906 288.445312 18.492188 291.144531 C 20.691406 292.914062 23.789062 293.652344 27.574219 292.765625 L 40.046875 289.867188 Z M 40.046875 272.140625 "/>
<path style=" stroke:none;fill-rule:nonzero;fill:rgb(99.607843%,99.607843%,99.607843%);fill-opacity:1;" d="M 437.671875 178.359375 L 437.671875 174.761719 C 437.691406 169.964844 437.378906 165.613281 436.722656 161.726562 C 436.066406 157.863281 434.90625 154.515625 433.246094 151.75 C 431.582031 148.964844 429.261719 146.839844 426.265625 145.351562 C 423.292969 143.863281 419.464844 143.109375 414.824219 143.089844 C 410.535156 143.109375 406.921875 143.6875 403.964844 144.828125 C 401.007812 145.988281 398.609375 147.574219 396.773438 149.625 C 394.9375 151.671875 393.507812 154.050781 392.542969 156.777344 C 391.554688 159.484375 390.878906 162.425781 390.511719 165.578125 C 390.164062 168.726562 389.992188 171.976562 390.007812 175.339844 C 389.992188 178.472656 390.066406 181.625 390.300781 184.777344 C 390.511719 187.949219 391.015625 190.964844 391.824219 193.828125 C 392.617188 196.6875 393.894531 199.222656 395.613281 201.464844 C 397.355469 203.707031 399.710938 205.464844 402.707031 206.761719 C 405.722656 208.058594 409.53125 208.734375 414.128906 208.753906 C 419.136719 208.734375 423.292969 207.863281 426.558594 206.105469 C 429.84375 204.363281 432.316406 201.8125 433.980469 198.449219 C 435.640625 195.082031 436.570312 190.984375 436.742188 186.128906 L 422.363281 186.128906 C 422.074219 188.683594 421.589844 190.828125 420.953125 192.570312 C 420.296875 194.308594 419.40625 195.625 418.265625 196.515625 C 417.125 197.402344 415.65625 197.847656 413.898438 197.847656 C 412.429688 197.828125 411.191406 197.421875 410.167969 196.609375 C 409.164062 195.800781 408.351562 194.714844 407.734375 193.34375 C 407.132812 191.96875 406.6875 190.421875 406.417969 188.703125 C 406.148438 186.980469 406.011719 185.183594 406.011719 183.347656 L 406.011719 178.359375 Z M 406.011719 168.84375 L 406.011719 166.40625 C 406.011719 164.9375 406.128906 163.46875 406.398438 162.019531 C 406.667969 160.566406 407.113281 159.234375 407.734375 158.015625 C 408.371094 156.816406 409.203125 155.851562 410.265625 155.117188 C 411.328125 154.382812 412.660156 154.011719 414.246094 153.996094 C 416.429688 153.996094 418.074219 154.574219 419.214844 155.734375 C 420.351562 156.875 421.125 158.558594 421.570312 160.761719 C 422.015625 162.964844 422.285156 165.671875 422.363281 168.84375 Z M 406.011719 168.84375 "/>
<path style=" stroke:none;fill-rule:nonzero;fill:rgb(99.607843%,99.607843%,99.607843%);fill-opacity:1;" d="M 448.710938 168.078125 L 448.710938 179.648438 L 481.941406 179.648438 L 481.941406 168.078125 Z M 448.710938 168.078125 "/>
<path style=" stroke:none;fill-rule:nonzero;fill:rgb(99.607843%,99.607843%,99.607843%);fill-opacity:1;" d="M 484.746094 125.960938 L 484.746094 139.242188 L 502.488281 139.242188 L 502.488281 206.339844 L 518.863281 206.339844 L 518.863281 139.242188 L 536.605469 139.242188 L 536.605469 125.960938 Z M 534.785156 206.339844 L 550.480469 206.339844 L 550.480469 169.976562 C 550.496094 167.949219 550.839844 166.242188 551.523438 164.855469 C 552.203125 163.449219 553.113281 162.320312 554.230469 161.476562 C 555.351562 160.613281 556.601562 160.015625 557.964844 159.621094 C 559.332031 159.246094 560.695312 159.058594 562.078125 159.058594 C 562.875 159.058594 563.691406 159.078125 564.523438 159.132812 C 565.359375 159.167969 566.171875 159.226562 566.96875 159.28125 L 566.96875 144.421875 C 566.515625 144.367188 566.039062 144.308594 565.546875 144.273438 C 565.054688 144.214844 564.582031 144.199219 564.125 144.199219 C 561.964844 144.214844 560.03125 144.609375 558.289062 145.398438 C 556.5625 146.203125 555.007812 147.3125 553.664062 148.757812 C 552.296875 150.21875 551.085938 151.910156 550.023438 153.878906 L 549.796875 153.878906 L 549.796875 145.773438 L 534.785156 145.773438 Z M 586.644531 164.234375 L 586.644531 162.566406 C 586.644531 160.988281 586.929688 159.640625 587.476562 158.476562 C 588.027344 157.3125 588.824219 156.394531 589.90625 155.753906 C 590.984375 155.117188 592.332031 154.777344 593.921875 154.777344 C 596.519531 154.796875 598.378906 155.453125 599.535156 156.730469 C 600.671875 158.023438 601.21875 159.828125 601.203125 162.117188 C 601.21875 163.449219 601.011719 164.574219 600.613281 165.472656 C 600.214844 166.375 599.550781 167.125 598.644531 167.707031 C 597.734375 168.308594 596.5 168.796875 594.945312 169.207031 L 586.074219 171.570312 C 583.382812 172.285156 581.054688 173.167969 579.101562 174.179688 C 577.148438 175.191406 575.535156 176.429688 574.285156 177.894531 C 573.035156 179.359375 572.105469 181.121094 571.5 183.1875 C 570.914062 185.269531 570.609375 187.707031 570.609375 190.558594 C 570.609375 192.625 570.855469 194.667969 571.386719 196.695312 C 571.917969 198.742188 572.75 200.597656 573.90625 202.285156 C 575.0625 203.976562 576.578125 205.328125 578.476562 206.339844 C 580.371094 207.371094 582.664062 207.898438 585.394531 207.914062 C 587.875 207.933594 590.074219 207.726562 591.953125 207.277344 C 593.847656 206.828125 595.535156 206.019531 596.992188 204.875 C 598.453125 203.730469 599.78125 202.117188 600.972656 200.035156 L 601.203125 200.035156 C 601.410156 201.066406 601.675781 202.117188 601.960938 203.226562 C 602.246094 204.332031 602.644531 205.363281 603.136719 206.339844 L 618.148438 206.339844 C 617.617188 205.195312 617.21875 204.085938 616.933594 203 C 616.648438 201.910156 616.460938 200.691406 616.367188 199.378906 C 616.25 198.046875 616.214844 196.453125 616.214844 194.59375 L 616.214844 162.679688 C 616.25 159.957031 615.96875 157.480469 615.378906 155.230469 C 614.773438 152.976562 613.691406 151.027344 612.121094 149.375 C 610.546875 147.722656 608.292969 146.46875 605.371094 145.566406 C 602.453125 144.664062 598.660156 144.214844 594.035156 144.199219 C 591.0625 144.179688 588.273438 144.496094 585.695312 145.152344 C 583.101562 145.792969 580.824219 146.84375 578.855469 148.289062 C 576.882812 149.730469 575.347656 151.644531 574.230469 154.027344 C 573.128906 156.410156 572.5625 159.339844 572.542969 162.789062 L 572.542969 164.234375 Z M 601.203125 187.953125 C 601.183594 189.621094 600.878906 191.046875 600.292969 192.230469 C 599.683594 193.429688 598.90625 194.386719 597.941406 195.136719 C 596.992188 195.886719 595.949219 196.453125 594.8125 196.808594 C 593.695312 197.164062 592.597656 197.332031 591.535156 197.332031 C 590.132812 197.3125 588.996094 196.921875 588.125 196.167969 C 587.25 195.402344 586.625 194.386719 586.226562 193.113281 C 585.808594 191.835938 585.621094 190.429688 585.621094 188.851562 C 585.582031 186.167969 586.265625 184.011719 587.667969 182.417969 C 589.070312 180.820312 591.34375 179.695312 594.492188 179.039062 C 595.476562 178.816406 596.578125 178.4375 597.769531 177.933594 C 598.945312 177.425781 600.101562 176.769531 601.203125 175.980469 Z M 627.359375 206.339844 L 643.054688 206.339844 L 643.054688 166.148438 C 643.070312 162.773438 643.773438 160.257812 645.195312 158.605469 C 646.617188 156.957031 648.664062 156.128906 651.355469 156.128906 C 653.667969 156.09375 655.375 156.75 656.453125 158.0625 C 657.535156 159.394531 658.085938 161.550781 658.066406 164.574219 L 658.066406 206.339844 L 673.761719 206.339844 L 673.761719 161.421875 C 673.742188 157.445312 673.136719 154.195312 671.902344 151.644531 C 670.671875 149.113281 668.886719 147.21875 666.574219 146.015625 C 664.246094 144.796875 661.457031 144.195312 658.179688 144.195312 C 654.84375 144.179688 651.847656 144.890625 649.15625 146.296875 C 646.464844 147.707031 644.285156 149.902344 642.597656 152.863281 L 642.371094 152.863281 L 642.371094 145.773438 L 627.359375 145.773438 Z M 681.605469 186.527344 L 681.605469 188.664062 C 681.589844 191.574219 681.929688 194.199219 682.648438 196.5625 C 683.371094 198.929688 684.5625 200.953125 686.25 202.644531 C 687.957031 204.332031 690.25 205.625 693.171875 206.546875 C 696.089844 207.445312 699.746094 207.898438 704.125 207.914062 C 707.441406 207.914062 710.476562 207.519531 713.242188 206.734375 C 716.007812 205.945312 718.417969 204.761719 720.445312 203.167969 C 722.472656 201.59375 724.046875 199.605469 725.164062 197.222656 C 726.285156 194.855469 726.851562 192.0625 726.871094 188.890625 C 726.890625 185.867188 726.453125 183.261719 725.5625 181.066406 C 724.671875 178.871094 723.230469 177.011719 721.242188 175.476562 C 719.25 173.9375 716.617188 172.621094 713.335938 171.554688 L 703.898438 168.402344 C 702.171875 167.839844 700.808594 167.179688 699.804688 166.46875 C 698.800781 165.738281 698.097656 164.929688 697.679688 164.066406 C 697.265625 163.203125 697.054688 162.285156 697.074219 161.308594 C 697.09375 159.882812 697.433594 158.683594 698.097656 157.707031 C 698.78125 156.75 699.671875 156.015625 700.789062 155.511719 C 701.886719 155.023438 703.121094 154.777344 704.464844 154.777344 C 706.988281 154.777344 708.789062 155.53125 709.851562 157.050781 C 710.910156 158.570312 711.441406 160.859375 711.402344 163.898438 L 725.507812 163.898438 L 725.507812 161.421875 C 725.507812 157.761719 724.75 154.667969 723.230469 152.097656 C 721.734375 149.542969 719.421875 147.574219 716.332031 146.242188 C 713.222656 144.890625 709.320312 144.214844 704.582031 144.199219 C 700.5625 144.214844 697.113281 144.683594 694.25 145.640625 C 691.386719 146.578125 689.058594 147.894531 687.273438 149.5625 C 685.472656 151.234375 684.148438 153.164062 683.3125 155.359375 C 682.480469 157.554688 682.0625 159.902344 682.0625 162.433594 C 682.0625 166.695312 683.160156 170.203125 685.359375 172.941406 C 687.558594 175.699219 690.820312 177.820312 695.140625 179.320312 L 706.171875 183.261719 C 707.214844 183.617188 708.164062 184.085938 709.015625 184.667969 C 709.867188 185.230469 710.550781 185.960938 711.0625 186.84375 C 711.574219 187.726562 711.839844 188.816406 711.859375 190.128906 C 711.859375 191.742188 711.519531 193.074219 710.855469 194.144531 C 710.191406 195.214844 709.28125 196.019531 708.085938 196.546875 C 706.894531 197.070312 705.507812 197.332031 703.898438 197.332031 C 702.117188 197.3125 700.617188 196.957031 699.40625 196.226562 C 698.191406 195.511719 697.265625 194.5 696.636719 193.1875 C 696.03125 191.875 695.710938 190.335938 695.710938 188.550781 L 695.710938 186.527344 Z M 738.128906 206.339844 L 753.824219 206.339844 L 753.824219 156.355469 L 762.921875 156.355469 L 762.921875 145.773438 L 753.824219 145.773438 L 753.824219 140.480469 C 753.804688 138.757812 754.242188 137.5 755.171875 136.75 C 756.097656 135.996094 757.652344 135.621094 759.851562 135.640625 C 760.363281 135.640625 760.875 135.640625 761.386719 135.660156 C 761.898438 135.660156 762.410156 135.699219 762.921875 135.753906 L 762.921875 124.722656 C 761.5 124.609375 760.097656 124.515625 758.714844 124.457031 C 757.332031 124.402344 755.929688 124.382812 754.507812 124.382812 C 751.113281 124.363281 748.195312 124.796875 745.769531 125.714844 C 743.324219 126.636719 741.445312 128.15625 740.121094 130.292969 C 738.8125 132.414062 738.148438 135.285156 738.128906 138.90625 L 738.128906 145.773438 L 730.167969 145.773438 L 730.167969 156.355469 L 738.128906 156.355469 Z M 812.847656 178.421875 L 812.847656 174.929688 C 812.867188 170.277344 812.566406 166.054688 811.921875 162.285156 C 811.277344 158.53125 810.136719 155.285156 808.507812 152.601562 C 806.878906 149.902344 804.605469 147.835938 801.667969 146.390625 C 798.746094 144.949219 794.992188 144.214844 790.445312 144.199219 C 786.238281 144.214844 782.691406 144.777344 779.792969 145.886719 C 776.890625 147.011719 774.542969 148.550781 772.742188 150.539062 C 770.941406 152.527344 769.539062 154.835938 768.589844 157.480469 C 767.625 160.109375 766.960938 162.960938 766.601562 166.019531 C 766.257812 169.078125 766.089844 172.230469 766.105469 175.492188 C 766.089844 178.53125 766.164062 181.589844 766.390625 184.648438 C 766.601562 187.726562 767.09375 190.652344 767.890625 193.429688 C 768.667969 196.207031 769.917969 198.664062 771.605469 200.839844 C 773.308594 203.019531 775.621094 204.726562 778.558594 205.984375 C 781.515625 207.238281 785.25 207.898438 789.761719 207.914062 C 794.671875 207.898438 798.746094 207.050781 801.949219 205.34375 C 805.171875 203.65625 807.597656 201.179688 809.230469 197.914062 C 810.859375 194.648438 811.769531 190.671875 811.941406 185.960938 L 797.835938 185.960938 C 797.550781 188.441406 797.078125 190.523438 796.453125 192.210938 C 795.808594 193.898438 794.9375 195.175781 793.820312 196.039062 C 792.699219 196.902344 791.261719 197.332031 789.535156 197.332031 C 788.09375 197.3125 786.882812 196.921875 785.875 196.132812 C 784.890625 195.34375 784.09375 194.292969 783.488281 192.960938 C 782.902344 191.628906 782.464844 190.128906 782.199219 188.457031 C 781.933594 186.789062 781.800781 185.042969 781.800781 183.261719 L 781.800781 178.421875 Z M 781.800781 169.1875 L 781.800781 166.824219 C 781.800781 165.398438 781.914062 163.972656 782.179688 162.566406 C 782.445312 161.160156 782.882812 159.863281 783.488281 158.683594 C 784.113281 157.519531 784.929688 156.582031 785.972656 155.867188 C 787.015625 155.15625 788.320312 154.796875 789.875 154.777344 C 792.019531 154.777344 793.628906 155.34375 794.746094 156.46875 C 795.867188 157.574219 796.625 159.207031 797.058594 161.347656 C 797.496094 163.484375 797.761719 166.113281 797.835938 169.1875 Z M 821.039062 206.339844 L 836.730469 206.339844 L 836.730469 169.976562 C 836.75 167.949219 837.09375 166.242188 837.773438 164.855469 C 838.457031 163.449219 839.367188 162.324219 840.484375 161.476562 C 841.605469 160.613281 842.855469 160.015625 844.21875 159.621094 C 845.585938 159.246094 846.949219 159.058594 848.332031 159.058594 C 849.128906 159.058594 849.945312 159.078125 850.777344 159.132812 C 851.613281 159.167969 852.425781 159.226562 853.222656 159.28125 L 853.222656 144.421875 C 852.769531 144.367188 852.292969 144.308594 851.800781 144.273438 C 851.308594 144.214844 850.835938 144.199219 850.378906 144.199219 C 848.21875 144.214844 846.285156 144.609375 844.542969 145.398438 C 842.816406 146.203125 841.261719 147.3125 839.917969 148.757812 C 838.550781 150.21875 837.339844 151.910156 836.277344 153.878906 L 836.050781 153.878906 L 836.050781 145.773438 L 821.039062 145.773438 Z M 821.039062 206.339844 "/>
</g>
</svg>
