<svg width="40" height="40" viewBox="0 0 40 40" fill="none" xmlns="http://www.w3.org/2000/svg">
<path d="M20 0C15.6834 0.00155165 11.483 1.39865 8.02597 3.98271C4.56893 6.56678 2.04065 10.1992 0.818558 14.3378C-0.403532 18.4763 -0.253879 22.899 1.24518 26.9455C2.74423 30.992 5.51228 34.4454 9.1361 36.79C9.94839 37.3228 10.8013 37.7909 11.687 38.19C14.2963 39.3815 17.1314 39.9981 20 39.9981C22.8686 39.9981 25.7037 39.3815 28.313 38.19C29.1987 37.7909 30.0516 37.3228 30.8639 36.79C34.4877 34.4454 37.2558 30.992 38.7548 26.9455C40.2539 22.899 40.4035 18.4763 39.1814 14.3378C37.9594 10.1992 35.4311 6.56678 31.974 3.98271C28.517 1.39865 24.3166 0.00155165 20 0ZM20 38C16.8387 38.0057 13.7322 37.1741 10.9968 35.59C10.2969 35.1871 9.62816 34.7325 8.99604 34.23C6.0216 31.9344 3.84012 28.7661 2.7573 25.169C1.67447 21.5719 1.74456 17.7263 2.95773 14.171C4.1709 10.6157 6.46637 7.52895 9.52248 5.34318C12.5786 3.15742 16.2422 1.98219 20 1.98219C23.7578 1.98219 27.4214 3.15742 30.4775 5.34318C33.5336 7.52895 35.8291 10.6157 37.0423 14.171C38.2554 17.7263 38.3255 21.5719 37.2427 25.169C36.1599 28.7661 33.9784 31.9344 31.004 34.23C30.3718 34.7325 29.7031 35.1871 29.0032 35.59C26.2678 37.1741 23.1613 38.0057 20 38Z" fill="#9BA0B0"/>
<path d="M22.2409 21.68L24.2416 22.3C25.4118 22.6708 26.4609 23.349 27.2792 24.2637C28.0975 25.1785 28.6549 26.2962 28.8932 27.5C28.5665 27.8 28.2063 28.1 27.8129 28.4C25.5627 30.0853 22.8267 30.9963 20.0151 30.9963C17.2034 30.9963 14.4674 30.0853 12.2173 28.4C11.8171 28.09 11.457 27.79 11.1269 27.49C11.3652 26.2862 11.9226 25.1685 12.7409 24.2537C13.5592 23.339 14.6083 22.6608 15.7785 22.29L17.7793 21.67C19.2426 22.0967 20.7975 22.0967 22.2609 21.67L22.2409 21.68ZM20 6C17.8776 6 15.842 6.84285 14.3412 8.34315C12.8403 9.84344 11.9972 11.8783 11.9972 14C11.9949 14.3343 12.0149 14.6684 12.0572 15C12.0572 15.16 12.0572 15.32 12.1272 15.47C12.4627 17.4547 13.5343 19.2401 15.1283 20.47C13.4484 20.998 11.9657 22.018 10.8724 23.398C9.77903 24.778 9.12539 26.4544 8.99609 28.21C9.60668 28.8667 10.2764 29.4659 10.9968 30C13.5942 31.9473 16.7533 33 20 33C23.2468 33 26.4059 31.9473 29.0033 30C29.7237 29.4659 30.3934 28.8667 31.004 28.21C30.8881 26.4366 30.2371 24.74 29.137 23.3439C28.0369 21.9479 26.5393 20.918 24.8418 20.39C26.4545 19.1688 27.5447 17.3823 27.8929 15.39C27.8929 15.24 27.9429 15.08 27.9629 14.92C27.9951 14.6144 28.0085 14.3072 28.0029 14C28.0029 11.8783 27.1598 9.84344 25.6589 8.34315C24.1581 6.84285 22.1225 6 20 6ZM20 20C18.8129 20 17.6525 19.6481 16.6654 18.9888C15.6784 18.3295 14.9091 17.3925 14.4548 16.2961C14.0005 15.1997 13.8816 13.9933 14.1132 12.8295C14.3448 11.6656 14.9165 10.5965 15.7559 9.75736C16.5953 8.91824 17.6648 8.3468 18.8291 8.11529C19.9934 7.88378 21.2002 8.0026 22.297 8.45672C23.3937 8.91085 24.3311 9.67988 24.9907 10.6666C25.6502 11.6533 26.0022 12.8133 26.0022 14C26.0022 15.5913 25.3698 17.1174 24.2442 18.2426C23.1186 19.3679 21.5919 20 20 20Z" fill="#9BA0B0"/>
</svg>
