<svg width="140" height="140" viewBox="0 0 140 140" fill="none" xmlns="http://www.w3.org/2000/svg">
<g clip-path="url(#clip0_1_300)">
<path d="M92.1546 42.4024C92.1546 42.7988 92.3528 42.9971 92.5511 43.1953C92.7493 43.3935 93.1457 43.5917 93.5421 43.7899V41.4113C92.5511 41.2131 92.1546 41.6095 92.1546 42.4024Z" fill="#2957FF"/>
<path d="M95.5243 47.7542C95.3261 47.556 94.9297 47.3578 94.335 47.1595V49.5381C95.3261 49.5381 95.9207 49.1417 95.9207 48.547C95.9207 48.3488 95.7225 47.9524 95.5243 47.7542Z" fill="#2957FF"/>
<path d="M106.426 45.5738C106.426 38.8345 100.876 32.888 93.9386 32.888C87.1992 32.888 81.2527 38.438 81.2527 45.5738C81.2527 52.5114 86.8028 58.2596 93.9386 58.2596C100.678 58.0614 106.426 52.5114 106.426 45.5738ZM99.0922 50.1328C98.894 50.7275 98.4975 51.1239 98.1011 51.5203C97.7047 51.9167 97.1101 52.1149 96.5154 52.3132C95.9208 52.5114 95.3261 52.5114 94.7315 52.5114V54.89H93.3439V52.5114C92.3529 52.5114 91.56 52.3132 90.5689 51.9168C89.7761 51.7185 88.9832 51.3221 88.1903 50.7274L89.5778 47.9524C89.5778 47.9524 89.776 48.1506 89.9742 48.3488C90.1725 48.547 90.5689 48.7453 90.7672 48.7453C91.1636 48.9435 91.56 49.1417 91.9564 49.1417C92.3528 49.34 92.9475 49.3399 93.3439 49.5381V46.9614L92.5511 46.7631C91.9564 46.5649 91.3618 46.3667 90.9653 46.1685C90.5689 45.9703 90.1725 45.5738 89.7761 45.3756C89.3796 44.9792 89.1814 44.7809 89.1814 44.3845C88.9832 43.9881 88.9832 43.5917 88.9832 42.997C88.9832 42.4024 89.1814 41.6095 89.3796 41.2131C89.5778 40.6185 89.9743 40.222 90.3707 39.8256C90.7671 39.4291 91.1636 39.2309 91.7582 38.8345C92.3529 38.6363 92.9475 38.438 93.5422 38.438V36.4559H94.9296V38.438C95.7225 38.438 96.5154 38.6363 97.3083 39.0327C98.1011 39.4291 98.6958 39.6274 99.2904 40.0238L97.5065 42.6006C97.5065 42.6006 97.3082 42.4023 97.11 42.4023C96.9118 42.4023 96.7136 42.2042 96.3172 42.006C96.119 41.8077 95.7225 41.8077 95.3261 41.6095C94.9297 41.4113 94.5332 41.4113 94.1368 41.4113V44.1863L94.7315 44.3845C95.3261 44.5827 95.9208 44.781 96.5154 44.9792C97.1101 45.1774 97.5064 45.3756 97.9029 45.772C98.2993 46.1685 98.4976 46.5649 98.6958 46.9614C98.894 47.3578 99.0922 47.9524 99.0922 48.5471C99.4886 49.1417 99.2904 49.7364 99.0922 50.1328Z" fill="#2957FF"/>
<path d="M86.6046 87.3974C80.8563 87.3974 75.3063 89.5778 71.3419 93.5421C71.1437 93.7403 70.7473 94.1368 70.5491 94.335L47.3578 71.3419C47.556 71.1437 47.9525 70.9455 48.1507 70.549C56.4758 62.224 56.4757 48.7453 48.3489 40.6184C44.3845 36.6541 39.231 34.4737 33.2845 34.4737C27.5362 34.4737 21.9862 36.6541 18.0218 40.8166C12.2736 46.5649 11.8771 55.881 16.6343 67.3776C21.9861 80.4598 33.8791 95.5243 47.9525 108.012C63.0169 121.094 77.6849 128.626 88.5867 128.626C93.7404 128.626 97.9029 127.041 101.074 123.869C109.399 115.544 109.399 102.065 101.273 93.9385C97.3082 89.5778 92.1546 87.3974 86.6046 87.3974Z" fill="#2957FF"/>
<path d="M61.4312 15.445C62.8187 15.445 64.008 16.6343 64.008 18.0218C64.008 19.4093 62.8187 20.5986 61.4312 20.5986C60.0436 20.5986 58.8544 19.4093 58.8544 18.0218C58.6562 16.6343 59.8454 15.445 61.4312 15.445Z" fill="#2957FF"/>
<path d="M23.7701 22.9772C25.1576 22.9772 26.3469 24.1665 26.3469 25.554C26.3469 26.9415 25.1576 28.1309 23.7701 28.1309C22.3826 28.1309 21.1933 26.9415 21.1933 25.554C21.1933 24.1665 22.3826 22.9772 23.7701 22.9772Z" fill="#2957FF"/>
<path d="M18.8147 83.0366C20.2022 83.0366 21.3916 84.226 21.3916 85.6135C21.3916 87.001 20.2022 88.1903 18.8147 88.1903C17.4272 88.1903 16.2379 87.001 16.2379 85.6135C16.0397 84.0277 17.229 83.0366 18.8147 83.0366Z" fill="#2957FF"/>
<path d="M51.3221 117.923C52.7096 117.923 53.899 119.112 53.899 120.5C53.899 121.887 52.7096 123.076 51.3221 123.076C49.9346 123.076 48.7453 121.887 48.7453 120.5C48.7453 119.112 49.9346 117.923 51.3221 117.923Z" fill="#2957FF"/>
<path d="M33.6809 120.5C35.0684 120.5 36.2577 121.689 36.2577 123.076C36.2577 124.464 35.0684 125.653 33.6809 125.653C32.2934 125.653 31.1041 124.464 31.1041 123.076C31.1041 121.689 32.2934 120.5 33.6809 120.5Z" fill="#2957FF"/>
<path d="M113.76 115.544C115.148 115.544 116.337 116.733 116.337 118.121C116.337 119.508 115.148 120.698 113.76 120.698C112.373 120.698 111.183 119.508 111.183 118.121C111.183 116.733 112.373 115.544 113.76 115.544Z" fill="#2957FF"/>
<path d="M123.671 72.9277C125.058 72.9277 126.248 74.1169 126.248 75.5045C126.248 76.892 125.058 78.0812 123.671 78.0812C122.283 78.0812 121.094 76.892 121.094 75.5045C121.094 74.1169 122.283 72.9277 123.671 72.9277Z" fill="#2957FF"/>
<path d="M99.885 13.0664C97.9029 12.6699 95.9208 12.4717 93.7404 12.4717C77.4867 12.4717 63.6115 24.1665 60.4401 40.0238C58.2597 52.1149 62.6204 64.4043 72.1348 72.1347L67.7741 82.2438C67.5759 82.6402 67.5759 83.2349 67.9723 83.6313C68.1705 83.8295 68.567 84.0277 68.9634 84.0277C69.1616 84.0277 69.1616 84.0277 69.3598 84.0277L84.6224 78.6759C85.6135 79.0723 86.8028 79.2705 87.7939 79.4688C89.7761 79.8652 91.7582 80.0634 93.9386 80.0634C110.192 80.0634 124.067 68.3686 127.239 52.5113C130.41 34.0773 118.121 16.436 99.885 13.0664ZM92.5511 68.1704V60.6382C85.0189 60.0436 78.676 53.7006 78.676 45.5738C78.676 37.6451 84.6224 31.104 92.5511 30.5094V24.3647C81.2528 24.9594 72.5313 34.2755 72.5313 45.5738C72.5313 46.1684 71.9366 46.7631 71.3419 46.7631C70.7473 46.7631 70.1526 46.1684 70.1526 45.5738C70.1526 32.4915 80.8563 21.7879 93.9386 21.7879C94.5332 21.7879 95.1279 22.3825 95.1279 22.9772V30.5094C102.66 31.104 109.003 37.4469 109.003 45.5738C109.003 53.5024 103.057 60.0436 95.1279 60.6382V66.7829C106.426 66.1883 115.148 56.8721 115.148 45.5738C115.148 44.9791 115.742 44.3845 116.337 44.3845C116.932 44.3845 117.526 44.9791 117.526 45.5738C117.526 58.656 107.021 69.3597 93.7404 69.3597C93.1457 69.3597 92.5511 68.7651 92.5511 68.1704Z" fill="#2957FF"/>
<path d="M26.3469 99.2904C22.9773 99.2904 20.2022 102.065 20.2022 105.435C20.2022 108.805 22.9773 111.58 26.3469 111.58C29.7166 111.58 32.4916 108.805 32.4916 105.435C32.4916 102.065 29.7166 99.2904 26.3469 99.2904Z" fill="#2957FF"/>
<path d="M42.6006 26.7433C45.3757 26.7433 47.556 24.5629 47.556 21.7879C47.556 19.0129 45.3757 16.8325 42.6006 16.8325C39.8256 16.8325 37.6452 19.0129 37.6452 21.7879C37.447 24.5629 39.8256 26.7433 42.6006 26.7433Z" fill="#2957FF"/>
<path d="M117.526 84.4242C113.364 84.4242 109.994 87.7938 109.994 91.9564C109.994 96.1189 113.364 99.4886 117.526 99.4886C121.689 99.4886 125.059 96.1189 125.059 91.9564C125.257 87.7938 121.689 84.4242 117.526 84.4242Z" fill="#2957FF"/>
</g>
<defs>
<clipPath id="clip0_1_300">
<rect width="140" height="140" fill="white"/>
</clipPath>
</defs>
</svg>
