<svg width="65" height="65" viewBox="0 0 65 65" fill="none" xmlns="http://www.w3.org/2000/svg">
<g clip-path="url(#clip0_1_590)">
<path d="M58.82 35.05L50.32 26.59C49.2935 25.5714 47.9061 24.9998 46.46 24.9998C45.0139 24.9998 43.6265 25.5714 42.6 26.59C41.9889 27.21 41.5361 27.968 41.28 28.8C40.4307 28.2808 39.4554 28.0041 38.46 28C38.31 28 38.15 28 38 28V3C38 2.20435 37.6839 1.44129 37.1213 0.87868C36.5587 0.31607 35.7957 0 35 0L3 0C2.20435 0 1.44129 0.31607 0.87868 0.87868C0.31607 1.44129 0 2.20435 0 3L0 58C0 58.7957 0.31607 59.5587 0.87868 60.1213C1.44129 60.6839 2.20435 61 3 61H23.21C23.5364 62.1515 24.2296 63.1651 25.1843 63.887C26.139 64.6089 27.3031 64.9997 28.5 65H47.5C52.0743 65.0641 56.487 63.3096 59.7685 60.1219C63.0499 56.9343 64.9315 52.5743 65 48C65 42 62.88 39.12 58.82 35.05ZM5 3H33C33.5304 3 34.0391 3.21071 34.4142 3.58579C34.7893 3.96086 35 4.46957 35 5V12H3V5C3 4.46957 3.21071 3.96086 3.58579 3.58579C3.96086 3.21071 4.46957 3 5 3ZM3 56V51H18.5C18.8978 51 19.2794 50.842 19.5607 50.5607C19.842 50.2794 20 49.8978 20 49.5C20 49.1022 19.842 48.7206 19.5607 48.4393C19.2794 48.158 18.8978 48 18.5 48H3V15H35V29.27C34.87 29.38 34.72 29.47 34.6 29.59C33.9889 30.21 33.5361 30.968 33.28 31.8C32.2398 31.1581 31.0135 30.8859 29.7995 31.0274C28.5854 31.169 27.4546 31.716 26.59 32.58C26.0303 33.1458 25.6033 33.8289 25.34 34.58L21.34 30.58C20.3135 29.5614 18.9261 28.9898 17.48 28.9898C16.0339 28.9898 14.6465 29.5614 13.62 30.58C13.1138 31.0853 12.7123 31.6854 12.4383 32.346C12.1643 33.0066 12.0233 33.7148 12.0233 34.43C12.0233 35.1452 12.1643 35.8534 12.4383 36.514C12.7123 37.1746 13.1138 37.7747 13.62 38.28L30.12 54H28.5C27.3031 54.0003 26.139 54.3911 25.1843 55.113C24.2296 55.8349 23.5364 56.8485 23.21 58H5C4.46957 58 3.96086 57.7893 3.58579 57.4142C3.21071 57.0391 3 56.5304 3 56ZM47.5 62H28.5C27.837 62 27.2011 61.7366 26.7322 61.2678C26.2634 60.7989 26 60.163 26 59.5C26 58.837 26.2634 58.2011 26.7322 57.7322C27.2011 57.2634 27.837 57 28.5 57H33.28L35.46 59.07C35.5976 59.2085 35.7611 59.3184 35.9413 59.3934C36.1216 59.4684 36.3148 59.507 36.51 59.507C36.7052 59.507 36.8984 59.4684 37.0786 59.3934C37.2589 59.3184 37.4224 59.2085 37.56 59.07C37.6997 58.9331 37.8107 58.7698 37.8864 58.5895C37.9622 58.4092 38.0012 58.2156 38.0012 58.02C38.0012 57.8244 37.9622 57.6308 37.8864 57.4505C37.8107 57.2702 37.6997 57.1069 37.56 56.97L15.8 36.29C15.3505 35.8598 15.0724 35.2811 15.0172 34.6613C14.9621 34.0416 15.1336 33.4229 15.5 32.92C15.7312 32.6078 16.0328 32.3545 16.3804 32.1807C16.7279 32.007 17.1115 31.9176 17.5 31.92C18.1582 31.9209 18.7899 32.1794 19.26 32.64L33.13 46.56C33.2654 46.709 33.4296 46.8291 33.6128 46.9128C33.7959 46.9966 33.994 47.0424 34.1953 47.0475C34.3966 47.0525 34.5969 47.0167 34.784 46.9422C34.971 46.8677 35.1411 46.7561 35.2838 46.614C35.4265 46.472 35.539 46.3025 35.6144 46.1158C35.6897 45.929 35.7265 45.729 35.7224 45.5277C35.7183 45.3263 35.6735 45.1279 35.5905 44.9444C35.5076 44.7609 35.3884 44.5961 35.24 44.46L28.24 37.54C28.0442 37.1655 27.9499 36.7462 27.9665 36.324C27.983 35.9017 28.1099 35.4911 28.3344 35.1331C28.5589 34.7751 28.8733 34.4821 29.2462 34.2833C29.6191 34.0845 30.0376 33.9868 30.46 34C31.1182 34.0009 31.7499 34.2594 32.22 34.72L40.13 42.59C40.2654 42.739 40.4296 42.8591 40.6128 42.9428C40.7959 43.0266 40.994 43.0724 41.1953 43.0775C41.3966 43.0825 41.5969 43.0467 41.784 42.9722C41.971 42.8977 42.1411 42.7861 42.2838 42.644C42.4265 42.502 42.539 42.3325 42.6144 42.1458C42.6897 41.959 42.7265 41.759 42.7224 41.5577C42.7183 41.3563 42.6735 41.1579 42.5905 40.9744C42.5076 40.7909 42.3884 40.6261 42.24 40.49L36.3 34.59C36.0947 34.2185 35.9908 33.7994 35.9986 33.375C36.0064 32.9506 36.1257 32.5357 36.3446 32.172C36.5634 31.8083 36.8741 31.5085 37.2454 31.3028C37.6167 31.0971 38.0356 30.9927 38.46 31C39.1182 31.0009 39.7499 31.2594 40.22 31.72L47.13 38.59C47.2654 38.739 47.4296 38.8591 47.6128 38.9428C47.7959 39.0266 47.994 39.0724 48.1953 39.0775C48.3966 39.0825 48.5969 39.0467 48.784 38.9722C48.971 38.8977 49.1411 38.7861 49.2838 38.644C49.4265 38.502 49.539 38.3325 49.6144 38.1458C49.6897 37.959 49.7265 37.759 49.7224 37.5577C49.7183 37.3563 49.6735 37.1579 49.5905 36.9744C49.5076 36.7909 49.3884 36.6261 49.24 36.49L44.3 31.59C44.0947 31.2185 43.9908 30.7995 43.9986 30.375C44.0064 29.9506 44.1257 29.5357 44.3446 29.172C44.5634 28.8083 44.8741 28.5085 45.2454 28.3028C45.6167 28.0971 46.0356 27.9927 46.46 28C47.1182 28.0009 47.7499 28.2594 48.22 28.72L58.49 38.92C59.6699 40.1094 60.5909 41.5301 61.195 43.0928C61.7991 44.6554 62.0731 46.3262 62 48C61.929 51.7778 60.3626 55.3732 57.6444 57.9978C54.9261 60.6223 51.278 62.0616 47.5 62Z" fill="#515483"/>
<path d="M15.76 26.09C16.8362 25.9239 17.935 25.9792 18.989 26.2526C20.0431 26.526 21.0302 27.0118 21.89 27.68C22.1605 27.904 22.5045 28.0198 22.8554 28.0051C23.2063 27.9903 23.5393 27.846 23.79 27.6L23.88 27.52C24.0277 27.3685 24.1414 27.1873 24.2137 26.9884C24.2859 26.7896 24.3149 26.5776 24.2988 26.3666C24.2827 26.1557 24.2219 25.9505 24.1204 25.7649C24.0189 25.5793 23.879 25.4174 23.71 25.29C21.5926 23.6707 18.9592 22.8753 16.2994 23.0517C13.6396 23.2282 11.1343 24.3645 9.2494 26.2494C7.36449 28.1343 6.22817 30.6396 6.0517 33.2994C5.87523 35.9592 6.67063 38.5926 8.29 40.71C8.41736 40.879 8.57924 41.0189 8.76487 41.1204C8.9505 41.2219 9.15562 41.2828 9.36659 41.2989C9.57756 41.3149 9.78954 41.2859 9.98841 41.2137C10.1873 41.1415 10.3685 41.0277 10.52 40.88L10.6 40.79C10.8459 40.5393 10.9902 40.2063 11.005 39.8554C11.0198 39.5045 10.904 39.1606 10.68 38.89C9.82906 37.791 9.27916 36.4891 9.08449 35.1129C8.88982 33.7366 9.0571 32.3333 9.56985 31.0414C10.0826 29.7494 10.9231 28.6134 12.0086 27.7451C13.094 26.8769 14.387 26.3065 15.76 26.09Z" fill="#515483"/>
<path d="M13.5 9H24.5C24.8978 9 25.2794 8.84196 25.5607 8.56066C25.842 8.27936 26 7.89782 26 7.5C26 7.10218 25.842 6.72064 25.5607 6.43934C25.2794 6.15804 24.8978 6 24.5 6H13.5C13.1022 6 12.7206 6.15804 12.4393 6.43934C12.158 6.72064 12 7.10218 12 7.5C12 7.89782 12.158 8.27936 12.4393 8.56066C12.7206 8.84196 13.1022 9 13.5 9Z" fill="#515483"/>
<path d="M30.5 9C31.3284 9 32 8.32843 32 7.5C32 6.67157 31.3284 6 30.5 6C29.6716 6 29 6.67157 29 7.5C29 8.32843 29.6716 9 30.5 9Z" fill="#515483"/>
</g>
<defs>
<clipPath id="clip0_1_590">
<rect width="65" height="65" fill="white"/>
</clipPath>
</defs>
</svg>
