<svg width="65" height="65" viewBox="0 0 65 65" fill="none" xmlns="http://www.w3.org/2000/svg">
    <rect width="65" height="65"/>
    <path d="M32.5 0C26.0721 0 19.7886 1.90609 14.444 5.47724C9.09938 9.04838 4.93378 14.1242 2.47393 20.0628C0.0140817 26.0014 -0.629527 32.5361 0.624493 38.8404C1.87851 45.1448 4.97384 50.9358 9.51904 55.481C14.0643 60.0262 19.8552 63.1215 26.1596 64.3755C32.464 65.6295 38.9986 64.9859 44.9372 62.5261C50.8758 60.0662 55.9516 55.9006 59.5228 50.556C63.0939 45.2114 65 38.9279 65 32.5C65 23.8805 61.5759 15.614 55.481 9.51903C49.3861 3.4241 41.1196 0 32.5 0ZM32.5 62C26.6655 62 20.9619 60.2699 16.1107 57.0284C11.2594 53.7869 7.47835 49.1796 5.24557 43.7892C3.01278 38.3987 2.42858 32.4673 3.56685 26.7448C4.70511 21.0224 7.51472 15.766 11.6404 11.6404C15.766 7.5147 21.0224 4.7051 26.7449 3.56683C32.4673 2.42857 38.3988 3.01277 43.7892 5.24555C49.1796 7.47834 53.7869 11.2594 57.0284 16.1107C60.2699 20.9619 62 26.6655 62 32.5C61.9921 40.3214 58.8815 47.8203 53.3509 53.3509C47.8203 58.8815 40.3215 61.9921 32.5 62Z" fill="#000000"/>
    <path d="M44.51 28.86L28.5101 19.42C28.055 19.1436 27.5325 18.9982 27.0001 19C26.6018 18.9999 26.2076 19.0792 25.8403 19.233C25.4731 19.3869 25.1401 19.6124 24.8609 19.8963C24.5816 20.1802 24.3617 20.5168 24.2139 20.8866C24.0661 21.2564 23.9934 21.6518 24.0001 22.05V41C24.0001 41.7956 24.3161 42.5587 24.8787 43.1213C25.4413 43.6839 26.2044 44 27.0001 44C27.5291 43.9999 28.0479 43.8547 28.5001 43.58L44.5 34.14C44.9562 33.8671 45.3339 33.4808 45.5965 33.0187C45.8591 32.5566 45.9976 32.0343 45.9986 31.5028C45.9996 30.9713 45.8631 30.4486 45.6022 29.9855C45.3414 29.5224 44.9651 29.1346 44.51 28.86ZM27.0001 41V22.21L43 31.6L27.0001 41Z" fill="#000000"/>
</svg>
