<svg width="82" height="76" viewBox="0 0 82 76" fill="none" xmlns="http://www.w3.org/2000/svg">
<g clip-path="url(#clip0)">
<path d="M77 0C75.6739 0 74.4021 0.526784 73.4645 1.46447C72.5268 2.40215 72 3.67392 72 5V5.27C69.23 10.85 61.71 14.84 54 15H34C33.2043 15 32.4413 15.3161 31.8787 15.8787C31.3161 16.4413 31 17.2044 31 18H29.5C28.7777 18 28.0625 18.1423 27.3952 18.4187C26.7279 18.6951 26.1216 19.1002 25.6109 19.6109C25.1002 20.1216 24.6951 20.7279 24.4187 21.3952C24.1423 22.0625 24 22.7777 24 23.5V26.5C24 27.2223 24.1423 27.9375 24.4187 28.6048C24.6951 29.2721 25.1002 29.8784 25.6109 30.3891C26.1216 30.8998 26.7279 31.3049 27.3952 31.5813C28.0625 31.8577 28.7777 32 29.5 32H31C31.0015 32.5153 31.1357 33.0216 31.3896 33.47C31.6436 33.9183 32.0088 34.2938 32.45 34.56C32.2924 34.6987 32.1422 34.8456 32 35L23 44C22.3 44.68 21.67 45.31 21.06 45.93C21.0416 45.1361 20.7092 44.3818 20.1356 43.8325C19.562 43.2833 18.794 42.9839 18 43H14C13.2044 43 12.4413 43.3161 11.8787 43.8787C11.3161 44.4413 11 45.2043 11 46H3C2.20435 46 1.44129 46.3161 0.87868 46.8787C0.31607 47.4413 0 48.2043 0 49L0 70C0 70.7956 0.31607 71.5587 0.87868 72.1213C1.44129 72.6839 2.20435 73 3 73H11C11 73.7956 11.3161 74.5587 11.8787 75.1213C12.4413 75.6839 13.2044 76 14 76H18C18.7956 76 19.5587 75.6839 20.1213 75.1213C20.6839 74.5587 21 73.7956 21 73V71.86C23.737 73.8975 27.0579 74.9986 30.47 75H48C48.7 75.0034 49.3928 74.8597 50.0338 74.5784C50.6747 74.2971 51.2494 73.8843 51.7207 73.3668C52.192 72.8493 52.5494 72.2386 52.7698 71.5742C52.9902 70.9098 53.0686 70.2066 53 69.51C52.9161 68.5943 52.5688 67.7225 52 67C52.6949 66.4854 53.2444 65.7993 53.595 65.0089C53.9455 64.2184 54.0851 63.3505 54 62.49C53.9123 61.5813 53.5652 60.7169 53 60C53.6949 59.4854 54.2444 58.7993 54.595 58.0089C54.9455 57.2184 55.0851 56.3505 55 55.49C54.9123 54.5813 54.5652 53.7169 54 53C54.6949 52.4854 55.2444 51.7993 55.595 51.0089C55.9455 50.2184 56.0851 49.3505 56 48.49C55.8376 47.2311 55.2159 46.0765 54.2544 45.2478C53.2928 44.4191 52.0591 43.9748 50.79 44H48.33L49.89 35H54C61.71 35.16 69.23 39.15 72 44.73V47C72 48.3261 72.5268 49.5979 73.4645 50.5355C74.4021 51.4732 75.6739 52 77 52C78.3261 52 79.5979 51.4732 80.5355 50.5355C81.4732 49.5979 82 48.3261 82 47V5C82 4.34339 81.8707 3.69321 81.6194 3.08658C81.3681 2.47995 80.9998 1.92876 80.5355 1.46447C80.0712 1.00017 79.52 0.631876 78.9134 0.380602C78.3068 0.129329 77.6566 0 77 0V0ZM18 72C18 72.2652 17.8946 72.5196 17.7071 72.7071C17.5196 72.8946 17.2652 73 17 73H15C14.7348 73 14.4804 72.8946 14.2929 72.7071C14.1054 72.5196 14 72.2652 14 72V67.5C14 67.1022 13.842 66.7206 13.5607 66.4393C13.2794 66.158 12.8978 66 12.5 66C12.1022 66 11.7206 66.158 11.4393 66.4393C11.158 66.7206 11 67.1022 11 67.5V70H4C3.73478 70 3.48043 69.8946 3.29289 69.7071C3.10536 69.5196 3 69.2652 3 69V50C3 49.7348 3.10536 49.4804 3.29289 49.2929C3.48043 49.1054 3.73478 49 4 49H11V60.5C11 60.8978 11.158 61.2794 11.4393 61.5607C11.7206 61.842 12.1022 62 12.5 62C12.8978 62 13.2794 61.842 13.5607 61.5607C13.842 61.2794 14 60.8978 14 60.5V47C14 46.7348 14.1054 46.4804 14.2929 46.2929C14.4804 46.1054 14.7348 46 15 46H17C17.2652 46 17.5196 46.1054 17.7071 46.2929C17.8946 46.4804 18 46.7348 18 47V72ZM34 19C34 18.7348 34.1054 18.4804 34.2929 18.2929C34.4804 18.1054 34.7348 18 35 18H47V32H35C34.7348 32 34.4804 31.8946 34.2929 31.7071C34.1054 31.5196 34 31.2652 34 31V19ZM29.5 29C28.837 29 28.2011 28.7366 27.7322 28.2678C27.2634 27.7989 27 27.163 27 26.5V23.5C27 22.837 27.2634 22.2011 27.7322 21.7322C28.2011 21.2634 28.837 21 29.5 21H31V29H29.5ZM50.89 47C51.3811 46.9829 51.8625 47.1401 52.2487 47.444C52.6349 47.7478 52.9011 48.1786 53 48.66C53.05 48.9496 53.0355 49.2467 52.9577 49.5301C52.8798 49.8135 52.7404 50.0762 52.5495 50.2997C52.3585 50.5231 52.1207 50.7017 51.8529 50.8227C51.5851 50.9437 51.2939 51.0043 51 51H46.5C46.1022 51 45.7206 51.158 45.4393 51.4393C45.158 51.7206 45 52.1022 45 52.5C45 52.8978 45.158 53.2794 45.4393 53.5607C45.7206 53.842 46.1022 54 46.5 54H49.89C50.3811 53.9829 50.8625 54.1401 51.2487 54.444C51.6349 54.7478 51.9011 55.1786 52 55.66C52.05 55.9496 52.0355 56.2467 51.9577 56.5301C51.8798 56.8135 51.7404 57.0762 51.5495 57.2997C51.3585 57.5231 51.1207 57.7017 50.8529 57.8227C50.5851 57.9437 50.2939 58.0043 50 58H45.5C45.1022 58 44.7206 58.158 44.4393 58.4393C44.158 58.7206 44 59.1022 44 59.5C44 59.8978 44.158 60.2794 44.4393 60.5607C44.7206 60.842 45.1022 61 45.5 61H48.89C49.3811 60.9829 49.8625 61.1401 50.2487 61.444C50.6349 61.7478 50.9011 62.1786 51 62.66C51.05 62.9496 51.0355 63.2467 50.9577 63.5301C50.8798 63.8135 50.7404 64.0762 50.5495 64.2997C50.3585 64.5231 50.1207 64.7017 49.8529 64.8227C49.5851 64.9437 49.2939 65.0043 49 65H44.5C44.1022 65 43.7206 65.158 43.4393 65.4393C43.158 65.7206 43 66.1022 43 66.5C43 66.8978 43.158 67.2794 43.4393 67.5607C43.7206 67.842 44.1022 68 44.5 68H47.89C48.3811 67.9828 48.8625 68.1401 49.2487 68.444C49.6349 68.7479 49.9011 69.1786 50 69.66C50.05 69.9496 50.0355 70.2467 49.9577 70.5301C49.8798 70.8135 49.7404 71.0762 49.5495 71.2997C49.3585 71.5231 49.1207 71.7017 48.8529 71.8227C48.5851 71.9437 48.2939 72.0043 48 72H30.47C28.6915 71.9995 26.9322 71.6314 25.3026 70.919C23.673 70.2066 22.2082 69.1652 21 67.86V50.29C21.59 49.6 22.25 48.9 23 48.17L34.16 37C34.4966 36.6474 34.9463 36.4242 35.4306 36.3694C35.9149 36.3146 36.4031 36.4316 36.81 36.7C37.0401 36.8685 37.2315 37.0842 37.3714 37.3328C37.5112 37.5813 37.5964 37.8569 37.621 38.141C37.6456 38.4251 37.6092 38.7112 37.5141 38.9801C37.4191 39.249 37.2677 39.4944 37.07 39.7L32.83 44H31.5C31.1022 44 30.7206 44.158 30.4393 44.4393C30.158 44.7206 30 45.1022 30 45.5C30 45.8978 30.158 46.2794 30.4393 46.5607C30.7206 46.842 31.1022 47 31.5 47H50.89ZM37.07 44L39.19 41.88C40.0911 40.9705 40.609 39.7499 40.6369 38.4699C40.6648 37.1899 40.2006 35.9479 39.34 35H46.84L45.28 44H37.07ZM54 32H50V18H54C61 17.87 67.9 14.92 72 10.43V39.57C67.9 35.08 61 32.13 54 32ZM79 47C79 47.5304 78.7893 48.0391 78.4142 48.4142C78.0391 48.7893 77.5304 49 77 49C76.4696 49 75.9609 48.7893 75.5858 48.4142C75.2107 48.0391 75 47.5304 75 47V5C75 4.46957 75.2107 3.96086 75.5858 3.58579C75.9609 3.21071 76.4696 3 77 3C77.5304 3 78.0391 3.21071 78.4142 3.58579C78.7893 3.96086 79 4.46957 79 5V47Z" fill="#3D4455"/>
</g>
<defs>
<clipPath id="clip0">
<rect width="82" height="76" fill="white"/>
</clipPath>
</defs>
</svg>
