<svg width="123" height="120" viewBox="0 0 123 120" fill="none" xmlns="http://www.w3.org/2000/svg">
<path d="M53.9278 95.791L59.3788 86.6334L45.6423 68.1002L42.5898 72.243L53.9278 95.791Z" fill="#2957FF"/>
<path d="M90.9942 110.618H30.3796V119.121H90.9942V110.618Z" fill="#2957FF"/>
<path d="M62.8673 86.6334L67.6642 95.791L79.6562 72.243L76.1676 68.1002L62.8673 86.6334Z" fill="#2957FF"/>
<path d="M68.9724 99.2795C68.7544 99.7156 68.3183 99.9337 67.8822 99.9337C67.4462 99.9337 67.0101 99.7156 66.7921 99.2795L61.3411 89.4678L55.4541 99.2795C55.236 99.7156 54.8 99.9337 54.3639 99.9337C53.9278 99.9337 53.4917 99.7156 53.2737 99.2795L40.6275 73.5511L35.1766 75.7315L14.463 82.9267V119.339H28.4175V109.527V109.309V109.091V103.858C28.4175 103.204 29.0715 102.55 29.7256 102.55C30.3798 102.55 31.034 103.204 31.034 103.858V108.001H91.6484V103.858C91.6484 103.204 92.3025 102.55 92.9566 102.55C93.6107 102.55 94.2649 103.204 94.2649 103.858V119.557H108.001V83.3628L82.4908 73.9872L68.9724 99.2795Z" fill="#2957FF"/>
<path d="M58.7246 26.0189C58.7246 26.673 58.9428 27.1091 59.3788 27.5452C59.8149 27.9812 60.4689 28.1993 61.3411 28.4173V23.6205C59.5968 23.8385 58.7246 24.7107 58.7246 26.0189Z" fill="#2957FF"/>
<path d="M66.3559 38.2289C66.3559 37.5748 66.138 37.1388 65.4838 36.7027C65.0478 36.2666 64.1756 36.0486 63.3035 35.6125V40.1913C65.4838 40.1913 66.3559 39.5372 66.3559 38.2289Z" fill="#2957FF"/>
<path d="M26.4549 2.03467C27.9811 2.03467 29.2893 3.34287 29.2893 4.86913C29.2893 6.39539 27.9811 7.70363 26.4549 7.70363C24.9286 7.70363 23.6204 6.39539 23.6204 4.86913C23.6204 3.34287 24.9286 2.03467 26.4549 2.03467Z" fill="#2957FF"/>
<path d="M12.5006 18.3876C14.0269 18.3876 15.3351 19.6958 15.3351 21.222C15.3351 22.7483 14.0269 24.0565 12.5006 24.0565C10.9743 24.0565 9.66602 22.7483 9.66602 21.222C9.66602 19.6958 10.9743 18.3876 12.5006 18.3876Z" fill="#2957FF"/>
<path d="M100.588 4.65112C102.114 4.65112 103.422 5.95936 103.422 7.48562C103.422 9.01188 102.114 10.3201 100.588 10.3201C99.0615 10.3201 97.7533 9.01188 97.7533 7.48562C97.7533 5.95936 99.0615 4.65112 100.588 4.65112Z" fill="#2957FF"/>
<path d="M111.708 26.673C113.234 26.673 114.542 27.9812 114.542 29.5075C114.542 31.0337 113.234 32.342 111.708 32.342C110.182 32.342 108.873 31.0337 108.873 29.5075C108.873 27.9812 109.963 26.673 111.708 26.673Z" fill="#2957FF"/>
<path d="M119.993 62.4312C121.519 62.4312 122.828 63.7394 122.828 65.2657C122.828 66.792 121.519 68.1002 119.993 68.1002C118.467 68.1002 117.159 66.792 117.159 65.2657C117.159 63.7394 118.467 62.4312 119.993 62.4312Z" fill="#2957FF"/>
<path d="M23.6206 57.1982C25.1468 57.1982 26.237 58.2885 26.237 59.8147C26.237 61.341 25.1468 62.4312 23.6206 62.4312C22.0943 62.4312 21.0041 61.341 21.0041 59.8147C21.0041 58.2885 22.0943 57.1982 23.6206 57.1982Z" fill="#2957FF"/>
<path d="M31.6879 33.6501H36.0487C36.2667 39.7552 38.8832 45.2061 42.5898 49.7849L39.5372 52.8374C39.1012 53.2735 39.1012 54.1457 39.5372 54.7998C39.7553 55.0178 40.1914 55.2359 40.4095 55.2359C40.6275 55.2359 41.0635 55.0178 41.2815 54.7998L44.3341 51.7472C48.9129 55.89 55.0179 58.2884 61.7771 58.2884C68.3182 58.2884 74.6413 55.6719 79.2201 51.7472L82.2727 54.7998C82.4907 55.0178 82.9267 55.2359 83.1448 55.2359C83.3628 55.2359 83.7989 55.0178 84.017 54.7998C84.4531 54.3637 84.4531 53.4915 84.017 52.8374L80.9644 49.7849C84.8891 45.4242 87.2875 39.9732 87.5055 33.6501H91.8663C92.5204 33.6501 93.1746 32.996 93.1746 32.3419C93.1746 31.6878 92.5204 31.0337 91.8663 31.0337H87.5055C87.2875 24.9286 84.671 19.4777 80.9644 14.8989L84.017 11.8464C84.4531 11.4103 84.4531 10.5381 84.017 9.88402C83.5809 9.44794 82.7087 9.44794 82.0546 9.88402L79.4381 12.9366C75.0774 9.01189 69.6265 6.61347 63.3034 6.39543V2.03468C63.3034 1.38057 62.6492 0.72644 61.9951 0.72644C61.341 0.72644 60.6869 1.38057 60.6869 2.03468V6.39543C54.5819 6.61347 49.1309 9.22992 44.5521 12.9366L41.4996 9.88402C41.0636 9.44794 40.1914 9.44794 39.5372 9.88402C39.1012 10.3201 39.1012 11.1923 39.5372 11.8464L42.5898 14.8989C38.6651 19.2596 36.2667 24.7106 36.0487 31.0337H31.6879C31.0338 31.0337 30.3796 31.6878 30.3796 32.3419C30.3796 33.2141 31.0338 33.6501 31.6879 33.6501ZM59.5967 34.5223C58.2885 34.0862 57.1983 33.6501 56.3262 33.214C55.454 32.778 54.5819 32.3419 54.1458 31.6878C53.4917 31.0337 53.0557 30.3796 52.8376 29.7255C52.6196 28.8533 52.4015 27.9812 52.4015 27.109C52.4015 25.8008 52.6195 24.4925 53.0556 23.6204C53.4917 22.5302 54.1458 21.6581 55.018 21.004C55.8902 20.3498 56.7623 19.6957 57.8525 19.2596C58.9427 18.8236 60.0328 18.6055 61.341 18.3875V14.4628H63.9575V18.3875C65.7018 18.6055 67.228 18.8236 68.5362 19.4777C70.0625 20.1318 71.3707 20.5679 72.2429 21.222L69.4084 26.4549C69.4084 26.4549 69.1904 26.2369 68.7543 26.0188C68.3183 25.8008 67.8822 25.5827 67.2281 25.3647C66.5739 25.1467 65.9198 24.9286 65.2657 24.4925C64.6115 24.2745 63.9574 24.0565 63.0853 24.0565V29.2894L64.3936 29.5074C65.7018 29.9435 66.792 30.1615 67.8821 30.5976C68.9723 31.0337 69.8445 31.4697 70.4986 32.1239C71.1527 32.778 71.8068 33.4321 72.2429 34.3042C72.679 35.1764 72.897 36.2666 72.897 37.5748C72.897 39.1011 72.679 40.1913 72.0249 41.2815C71.5888 42.3717 70.9347 43.2438 70.0625 43.8979C69.1904 44.552 68.3183 44.9881 67.0101 45.4242C65.7018 45.8602 64.8296 45.8602 63.5214 46.0783V50.439H60.9049V45.8602C59.1606 45.6422 57.4164 45.4242 55.6721 44.77C53.9278 44.1159 52.4014 43.4618 51.0932 42.5897L53.9278 37.1387C53.9278 37.3568 54.3638 37.5748 54.7999 37.7928C55.236 38.0109 55.89 38.4469 56.5442 38.665C57.1983 38.883 58.0705 39.3191 58.9427 39.5372C59.8148 39.7552 60.687 39.9732 61.5591 40.1913V35.1764L59.5967 34.5223Z" fill="#2957FF"/>
<path d="M16.8613 47.6047C16.8613 43.0259 13.1546 39.3192 8.57581 39.3192C3.99702 39.3192 0.290405 43.0259 0.290405 47.6047C0.290405 52.1834 3.99702 55.8901 8.57581 55.8901C13.1546 55.8901 16.8613 51.9654 16.8613 47.6047Z" fill="#2957FF"/>
<path d="M106.039 44.7701C102.332 44.7701 99.2797 47.8226 99.2797 51.5293C99.2797 55.2359 102.332 58.2884 106.039 58.2884C109.745 58.2884 112.798 55.2359 112.798 51.5293C113.016 47.8226 109.963 44.7701 106.039 44.7701Z" fill="#2957FF"/>
</svg>
