<svg width="140" height="140" viewBox="0 0 140 140" fill="none" xmlns="http://www.w3.org/2000/svg">
<g clip-path="url(#clip0_1_301)">
<path d="M24.6223 52.2318C24.6223 52.6701 24.8415 52.8892 25.0606 53.3274C25.2797 53.5465 25.718 53.7657 26.3753 53.9848V50.9171C25.2797 50.9171 24.6223 51.3553 24.6223 52.2318Z" fill="#2957FF"/>
<path d="M29.6622 60.3394C29.6622 59.9011 29.443 59.4629 29.2239 59.2437C28.7856 59.0246 28.3474 58.8055 27.69 58.5864V61.6541C29.0047 61.6541 29.6622 61.2159 29.6622 60.3394Z" fill="#2957FF"/>
<path d="M26.8135 71.5147C35.1402 71.5147 41.714 64.7218 41.714 56.6143C41.714 48.5067 34.9211 41.7139 26.8135 41.7139C18.706 41.7139 11.9131 48.5067 11.9131 56.6143C11.9131 64.7218 18.4868 71.5147 26.8135 71.5147ZM25.0606 57.929C24.1841 57.7099 23.5267 57.4908 22.8693 57.0525C22.212 56.8334 21.7737 56.3951 21.3354 55.9569C20.8972 55.5187 20.6781 55.0804 20.459 54.6422C20.2398 54.2039 20.2398 53.5465 20.2398 52.8892C20.2398 52.0127 20.459 51.1362 20.6781 50.4788C20.8972 49.8214 21.3355 49.1641 21.9928 48.7258C22.4311 48.2876 23.0884 47.8493 23.7458 47.6302C24.4032 47.4111 25.2797 47.192 25.937 46.9728V44.3433H27.69V46.9728C28.7856 46.9728 29.8813 47.4111 30.7578 47.6302C31.6343 48.0684 32.5107 48.5067 33.3872 48.945L31.6343 52.4509C31.6343 52.4509 31.4151 52.2318 31.196 52.0127C30.9769 51.7935 30.5386 51.7935 30.3195 51.5744C29.8813 51.3553 29.443 51.1362 29.0048 51.1362C28.5665 50.9171 28.1283 50.9171 27.4709 50.6979V54.2039L28.3474 54.423C29.2239 54.6422 30.1004 54.8613 30.7578 55.2995C31.4152 55.5186 32.0725 55.9569 32.5107 56.3951C32.949 56.8334 33.3872 57.2716 33.6064 57.929C33.8255 58.5864 34.0446 59.2438 34.0446 60.1202C34.0446 60.9967 33.8255 61.8732 33.6064 62.5306C33.1681 63.188 32.7299 63.8454 32.2916 64.2836C31.6342 64.7218 30.9769 64.941 30.3195 65.3792C29.6621 65.8175 28.7856 65.8175 27.9091 65.8175V68.8852H26.1562V65.8175C25.0606 65.8175 23.7458 65.3792 22.6502 65.1601C21.5546 64.7218 20.459 64.2836 19.5825 63.6262L21.3354 59.9011C21.3354 59.9011 21.5546 60.1202 21.9928 60.3394C22.212 60.5585 22.6502 60.7776 23.0885 60.9967C23.5267 61.2159 23.9649 61.435 24.6223 61.6541C25.2797 61.8732 25.7179 62.0924 26.3753 62.0924V58.5864L25.0606 57.929Z" fill="#2957FF"/>
<path d="M86.196 123.885H55.7379V132.212H86.196V123.885Z" fill="#2957FF"/>
<path d="M68.0088 55.0804C76.3355 55.0804 82.9092 48.2876 82.9092 40.18C82.9092 32.0724 76.1164 25.2796 68.0088 25.2796C59.9012 25.2796 53.1084 32.0724 53.1084 40.18C53.1084 48.2876 59.9012 55.0804 68.0088 55.0804ZM66.4749 41.2756C65.5984 41.0565 64.9411 40.8374 64.2837 40.3991C63.6263 40.18 63.188 39.7418 62.7498 39.3035C62.3115 38.8653 62.0924 38.427 61.8733 37.9888C61.6542 37.5505 61.4351 36.8931 61.4351 36.2358C61.4351 35.3593 61.6542 34.4828 61.8733 33.8254C62.0924 33.1681 62.5307 32.5107 63.1881 32.0724C63.6263 31.6342 64.2837 31.1959 64.941 30.9768C65.5984 30.7577 66.4749 30.5386 67.1323 30.3194V27.69H68.8853V30.3194C69.9809 30.3194 71.0765 30.7577 71.953 30.9768C72.8295 31.4151 73.706 31.8533 74.5825 32.2915L72.8295 35.7975C72.8295 35.7975 72.6104 35.5784 72.3913 35.3593C72.1722 35.1402 71.7339 35.1402 71.5147 34.921C71.0765 34.7019 70.6383 34.4828 70.2 34.4828C69.7618 34.2637 69.3235 34.2637 68.6662 34.0445V37.5505L69.5426 37.7696C70.4191 37.9888 71.2956 38.2079 71.953 38.6461C72.6104 38.8653 73.2677 39.3035 73.706 39.7418C74.1442 40.18 74.5825 40.6183 74.8016 41.2756C75.0207 41.933 75.2399 42.5904 75.2399 43.4669C75.2399 44.3434 75.0207 45.2198 74.8016 45.8772C74.3633 46.5346 73.9251 47.1919 73.4869 47.6302C72.8295 48.0684 72.1721 48.2876 71.5147 48.7258C70.8574 48.9449 69.9809 49.1641 69.1044 49.1641V52.2318H67.3514V49.1641C66.2558 49.1641 64.941 48.7258 63.8454 48.5067C62.7498 48.0684 61.6542 47.6302 60.7777 46.9728L62.5307 43.2477C62.5307 43.2477 62.7498 43.4669 63.1881 43.686C63.4072 43.9051 63.8454 44.1242 64.2837 44.3433C64.7219 44.5625 65.1602 44.7816 65.8176 45.0007C66.4749 45.2198 66.9132 45.439 67.5705 45.439V41.933L66.4749 41.2756Z" fill="#2957FF"/>
<path d="M70.8574 43.686C70.8574 43.2477 70.6382 42.8095 70.4191 42.5904C69.9809 42.3712 69.5427 42.1521 68.8853 41.933V45.0007C70.2 45.2198 70.8574 44.7816 70.8574 43.686Z" fill="#2957FF"/>
<path d="M65.8176 35.5784C65.8176 36.0167 66.0366 36.2358 66.2558 36.674C66.4749 36.8932 66.9132 37.1123 67.5705 37.3314V34.2637C66.4749 34.2637 65.8176 34.7019 65.8176 35.5784Z" fill="#2957FF"/>
<path d="M42.1522 123.885H11.694V132.212H42.1522V123.885Z" fill="#2957FF"/>
<path d="M66.694 89.4828C66.694 90.1402 66.0366 90.7975 65.3793 90.7975C64.7219 90.7975 64.0645 90.1402 64.0645 89.4828V68.8852H55.7379V112.929H86.196V68.8852H66.9132V89.4828H66.694ZM68.2279 97.8095C68.2279 99.3434 66.9131 100.658 65.3793 100.658C63.8454 100.658 62.5307 99.3434 62.5307 97.8095C62.5307 96.2756 63.8454 94.9609 65.3793 94.9609C66.9131 94.7418 68.2279 96.0565 68.2279 97.8095Z" fill="#2957FF"/>
<path d="M24.1841 19.3633C26.3753 19.3633 28.3474 17.6103 28.3474 15.1999C28.3474 12.7896 26.5945 11.0366 24.1841 11.0366C21.7737 11.0366 20.0207 13.0087 20.0207 15.1999C20.0207 17.3911 21.7737 19.3633 24.1841 19.3633Z" fill="#2957FF"/>
<path d="M81.3753 21.3354C83.5665 21.3354 85.5387 19.5824 85.5387 17.172C85.5387 14.7617 83.7856 13.0087 81.3753 13.0087C78.9649 13.0087 77.2119 14.7617 77.2119 17.172C77.2119 19.5824 79.184 21.3354 81.3753 21.3354Z" fill="#2957FF"/>
<path d="M112.71 19.1441C112.71 19.5824 112.929 19.8015 113.148 20.2398C113.367 20.4589 113.806 20.678 114.463 20.8971V17.8294C113.367 17.8294 112.71 18.2677 112.71 19.1441Z" fill="#2957FF"/>
<path d="M117.75 27.2517C117.75 26.8135 117.531 26.3752 117.312 26.1561C116.873 25.937 116.435 25.7178 115.778 25.4987V28.5665C117.092 28.5665 117.75 28.1282 117.75 27.2517Z" fill="#2957FF"/>
<path d="M99.7817 52.4509V112.929H130.24V52.4509H99.7817ZM116.216 103.288C116.216 103.945 115.559 104.602 114.901 104.602C114.244 104.602 113.586 103.945 113.586 103.288V84.0047C113.586 83.3473 114.244 82.69 114.901 82.69C115.559 82.69 116.216 83.3473 116.216 84.0047V103.288ZM114.901 78.5266C113.367 78.5266 112.053 77.2119 112.053 75.678C112.053 74.1442 113.367 72.8294 114.901 72.8294C116.435 72.8294 117.75 74.1442 117.75 75.678C117.75 77.2119 116.435 78.5266 114.901 78.5266Z" fill="#2957FF"/>
<path d="M114.901 38.427C123.228 38.427 129.802 31.6342 129.802 23.5266C129.802 15.419 123.009 8.62622 114.901 8.62622C106.794 8.62622 100.001 15.419 100.001 23.5266C100.001 31.6342 106.575 38.427 114.901 38.427ZM113.148 24.8414C112.272 24.6222 111.614 24.4031 110.957 23.9649C110.3 23.7457 109.861 23.3075 109.423 22.8693C108.985 22.431 108.766 21.9928 108.547 21.5545C108.328 21.1163 108.328 20.4589 108.328 19.8015C108.328 18.925 108.547 18.0485 108.766 17.3912C108.985 16.7338 109.423 16.0764 110.08 15.6382C110.519 15.1999 111.176 14.7617 111.834 14.5425C112.491 14.3234 113.367 14.1043 114.025 13.8852V11.2557H115.778V13.8852C116.873 13.8852 117.969 14.3234 118.845 14.5425C119.722 14.9808 120.598 15.419 121.475 15.8573L119.722 19.3633C119.722 19.3633 119.503 19.1441 119.284 18.925C119.065 18.7059 118.626 18.7059 118.407 18.4868C117.969 18.2677 117.531 18.0485 117.092 18.0485C116.654 17.8294 116.216 17.8294 115.559 17.6103V21.1163L116.435 21.3354C117.312 21.5545 118.188 21.7736 118.845 22.2119C119.503 22.431 120.16 22.8692 120.598 23.3075C121.037 23.7457 121.475 24.184 121.694 24.8414C121.913 25.4987 122.132 26.1561 122.132 27.0326C122.132 27.9091 121.913 28.7856 121.694 29.443C121.256 30.1003 120.818 30.7577 120.379 31.1959C119.722 31.6342 119.065 31.8533 118.407 32.2916C117.75 32.5107 116.873 32.7298 115.997 32.7298V35.7975H114.244V32.7298C113.148 32.7298 111.834 32.2916 110.738 32.0724C109.642 31.6342 108.547 31.1959 107.67 30.5386L109.423 26.8135C109.423 26.8135 109.642 27.0326 110.08 27.2517C110.3 27.4708 110.738 27.69 111.176 27.9091C111.614 28.1282 112.053 28.3473 112.71 28.5665C113.367 28.7856 113.806 29.0047 114.463 29.0047V25.4987L113.148 24.8414Z" fill="#2957FF"/>
<path d="M130.24 123.885H99.7817V132.212H130.24V123.885Z" fill="#2957FF"/>
<path d="M11.694 112.929H30.9769V100.658C30.9769 100.001 31.6342 99.3434 32.2916 99.3434C32.949 99.3434 33.6064 100.001 33.6064 100.658V112.929H41.933V85.3195H11.4749V112.929H11.694Z" fill="#2957FF"/>
</g>
<defs>
<clipPath id="clip0_1_301">
<rect width="140" height="140" fill="white"/>
</clipPath>
</defs>
</svg>
