<svg width="24" height="25" viewBox="0 0 24 25" fill="none" xmlns="http://www.w3.org/2000/svg">
<path d="M8.70997 10.2911C8.52172 10.1028 8.26639 9.99704 8.00016 9.99704C7.73393 9.99704 7.47861 10.1028 7.29035 10.2911C7.1021 10.4793 6.99634 10.7347 6.99634 11.0009C6.99634 11.1327 7.0223 11.2633 7.07275 11.3851C7.1232 11.5069 7.19714 11.6175 7.29035 11.7107L11.2893 15.7098C11.3822 15.8035 11.4928 15.8779 11.6146 15.9287C11.7365 15.9794 11.8671 16.0056 11.9991 16.0056C12.1311 16.0056 12.2617 15.9794 12.3836 15.9287C12.5054 15.8779 12.616 15.8035 12.7089 15.7098L23.706 4.71233C23.8942 4.52407 24 4.26873 24 4.00249C24 3.73625 23.8942 3.48091 23.706 3.29265C23.5177 3.10439 23.2624 2.99863 22.9962 2.99863C22.7299 2.99863 22.4746 3.10439 22.2864 3.29265L11.9991 13.5903L8.70997 10.2911Z" fill="#AAB0BA"/>
<path d="M21.9942 9.99361C21.8743 10.115 21.7874 10.2651 21.7419 10.4296C21.6964 10.594 21.6938 10.7674 21.7343 10.9332C22.139 12.7333 22.0105 14.6124 21.3644 16.3407C20.722 18.3062 19.4648 20.0133 17.7783 21.21C16.0919 22.4068 14.0654 23.03 11.9979 22.9877C10.6739 23.0293 9.35539 22.7992 8.12375 22.3116C6.89212 21.8241 5.77346 21.0893 4.83679 20.1527C3.90011 19.2161 3.1653 18.0976 2.67767 16.866C2.19003 15.6345 1.95993 14.3161 2.00156 12.9922C2.00156 10.3413 3.05474 7.7989 4.92941 5.92439C6.80408 4.04988 9.34669 2.99679 11.9979 2.99679C13.6599 2.94349 15.303 3.36289 16.7361 4.20624C16.9321 4.32958 17.1648 4.38106 17.3946 4.3519C17.6243 4.32273 17.8367 4.21472 17.9957 4.04631C18.1029 3.93702 18.1836 3.80454 18.2316 3.65911C18.2795 3.51367 18.2934 3.35917 18.2721 3.20752C18.2509 3.05588 18.1951 2.91114 18.109 2.78448C18.0229 2.65782 17.9089 2.55263 17.7757 2.47703C16.0229 1.46108 14.0234 0.949135 11.9979 0.997698C8.81645 0.997698 5.76533 2.26141 3.51572 4.51082C1.26611 6.76023 0.00229181 9.81109 0.00229181 12.9922C-0.0289735 14.576 0.259939 16.1497 0.851705 17.6191C1.44347 19.0885 2.3259 20.4232 3.44608 21.5433C4.56627 22.6634 5.90113 23.5457 7.37063 24.1375C8.84013 24.7292 10.414 25.0181 11.9979 24.9868C14.6728 24.9646 17.2653 24.0585 19.3716 22.4098C21.4779 20.761 22.9799 18.4621 23.6436 15.8709C24.0853 14.1015 24.1093 12.2536 23.7136 10.4734C23.6777 10.2919 23.5922 10.1238 23.4665 9.98806C23.3407 9.85227 23.1798 9.75404 23.0016 9.7043C22.8233 9.65456 22.6348 9.65528 22.4569 9.70635C22.2791 9.75743 22.1189 9.85688 21.9942 9.99361Z" fill="#AAB0BA"/>
</svg>
