<svg width="140" height="140" viewBox="0 0 140 140" fill="none" xmlns="http://www.w3.org/2000/svg">
<g clip-path="url(#clip0_1_299)">
<path d="M70.7631 123.746C72.2893 123.746 73.5976 122.438 73.5976 120.912C73.5976 119.386 72.2893 118.077 70.7631 118.077C69.2368 118.077 67.9286 119.386 67.9286 120.912C68.1466 122.22 69.2368 123.746 70.7631 123.746Z" fill="#2957FF"/>
<path d="M70.7631 35.6591C61.8235 35.6591 54.1923 43.0723 54.1923 52.2299C54.1923 61.1694 61.6055 68.8008 70.7631 68.8008C79.7026 68.8008 87.3339 61.3875 87.3339 52.2299C87.3339 43.0723 79.9206 35.6591 70.7631 35.6591ZM78.1764 58.771C77.7403 59.4251 77.3042 60.0793 76.6501 60.5153C75.996 60.9514 75.3419 61.3875 74.4697 61.6055C73.5976 61.8236 72.7254 62.0416 71.8533 62.0416V65.3122H70.109V62.0416C68.8008 61.8236 67.4925 61.6055 66.4023 61.1695C65.0941 60.7334 64.0039 60.2973 63.1317 59.6432L65.0941 55.7185C65.0941 55.7185 65.3122 55.9365 65.7482 56.1546C65.9663 56.3726 66.4024 56.5907 67.0565 56.8087C67.4925 57.0267 68.1466 57.2448 68.8007 57.4628C69.4549 57.6809 70.109 57.8989 70.7631 57.8989V54.1923L69.4549 53.7562C68.5827 53.5381 67.7106 53.1021 67.0565 52.884C66.4024 52.666 65.7482 52.2299 65.3121 51.7938C64.876 51.3578 64.658 50.9217 64.44 50.2676C64.2219 49.6135 64.2219 48.9593 64.2219 48.3052C64.2219 47.4331 64.44 46.5609 64.658 45.6888C65.0941 45.0347 65.5302 44.3806 65.9663 43.7264C66.6204 43.2904 67.2745 42.8543 67.9286 42.4182C68.8008 42.2002 69.4549 41.9821 70.327 41.7641V38.9296H72.2894V41.7641C73.5976 41.9821 74.6878 42.2002 75.778 42.6363C76.8682 43.0723 77.7403 43.5084 78.6124 43.9445L76.6501 47.6511C76.6501 47.6511 76.432 47.4331 76.214 47.215C75.996 46.997 75.5599 46.779 75.1238 46.779C74.6877 46.5609 74.2517 46.3429 73.8156 46.1248C73.3796 45.9068 72.7254 45.9068 72.2894 45.6888V49.3954L73.1615 49.6135C74.0336 49.8315 74.9058 50.0495 75.778 50.4856C76.4321 50.7036 77.0862 51.1397 77.7403 51.5758C78.1764 52.0119 78.6125 52.666 79.0485 53.3201C79.2666 53.9742 79.4846 54.8464 79.4846 55.7185C78.8305 57.0267 78.6125 57.8989 78.1764 58.771Z" fill="#2957FF"/>
<path d="M18.6521 38.2755C20.1784 38.2755 21.4866 36.9673 21.4866 35.441C21.4866 33.9147 20.1784 32.6065 18.6521 32.6065C17.1258 32.6065 15.8176 33.9147 15.8176 35.441C15.8176 36.9673 17.1258 38.2755 18.6521 38.2755Z" fill="#2957FF"/>
<path d="M68.5827 47.4331C68.5827 47.8692 68.8008 48.3052 69.0188 48.5233C69.2368 48.7413 69.891 48.9594 70.5451 49.1774V45.6888C69.2369 45.9068 68.5827 46.5609 68.5827 47.4331Z" fill="#2957FF"/>
<path d="M73.3796 55.2824C72.9435 55.0644 72.5074 54.8463 71.8533 54.6283V57.8989C73.3795 57.8989 74.0336 57.4628 74.0336 56.3726C73.8156 55.9365 73.5976 55.7185 73.3796 55.2824Z" fill="#2957FF"/>
<path d="M103.687 16.6897C103.687 12.1109 99.9801 8.18628 95.1833 8.18628H46.3429C41.7641 8.18628 37.8394 11.8929 37.8394 16.6897V21.9227H103.905V16.6897H103.687ZM74.9058 16.2537H66.6203C65.9662 16.2537 65.3121 15.5996 65.3121 14.9455C65.3121 14.2913 65.9662 13.6372 66.6203 13.6372H74.9058C75.5599 13.6372 76.214 14.2913 76.214 14.9455C76.214 15.5996 75.5599 16.2537 74.9058 16.2537Z" fill="#2957FF"/>
<path d="M121.566 107.175C119.385 107.175 117.423 108.92 117.423 111.318C117.423 113.717 119.167 115.461 121.566 115.461C123.964 115.461 125.709 113.717 125.709 111.318C125.709 108.92 123.964 107.175 121.566 107.175Z" fill="#2957FF"/>
<path d="M37.8394 123.31C37.8394 127.889 41.546 131.814 46.3429 131.814H95.4013C99.9801 131.814 103.905 128.107 103.905 123.31V109.792H37.8394V123.31ZM70.763 115.243C73.8156 115.243 76.214 117.641 76.214 120.694C76.214 123.746 73.8156 126.145 70.763 126.145C67.7105 126.145 65.3121 123.746 65.3121 120.694C65.3121 117.641 67.7105 115.243 70.763 115.243Z" fill="#2957FF"/>
<path d="M106.085 52.0119H103.905V24.5391H37.8394V29.9901H35.441C34.7869 29.9901 34.1328 30.6442 34.1328 31.2983V34.1328C34.1328 34.7869 34.7869 35.441 35.441 35.441H37.8394V40.8919H35.441C34.7869 40.8919 34.1328 41.5461 34.1328 42.2002V45.0347C34.1328 45.6888 34.7869 46.3429 35.441 46.3429H37.8394V76.6501H44.5985C45.2526 76.6501 45.9068 77.3042 45.9068 77.9584C45.9068 78.6125 45.2526 79.2666 44.5985 79.2666H37.8394V106.739H103.905V95.8374H91.4766C90.8225 95.8374 90.1684 95.1833 90.1684 94.5292C90.1684 93.8751 90.8225 93.221 91.4766 93.221H103.905V62.0416H106.085C106.739 62.0416 107.393 61.3875 107.393 60.7334V53.3201C107.393 52.666 106.957 52.0119 106.085 52.0119ZM50.0495 78.3944C50.0495 76.8682 51.3577 75.5599 52.884 75.5599C54.4103 75.5599 55.7185 76.8682 55.7185 78.3944C55.7185 79.9207 54.4103 81.0109 52.884 81.0109C51.3577 81.0109 50.0495 79.7026 50.0495 78.3944ZM83.1912 97.3637C81.6649 97.3637 80.3567 96.0555 80.3567 94.5292C80.3567 93.003 81.6649 91.6947 83.1912 91.6947C84.7175 91.6947 86.0257 93.003 86.0257 94.5292C86.0257 96.0555 84.7175 97.3637 83.1912 97.3637ZM86.8979 79.2666L72.9434 93.221C72.7254 93.439 72.2893 93.6571 72.0713 93.6571H71.8532C71.4172 93.6571 70.9811 93.221 70.763 92.7849L66.1843 80.7929L53.7561 93.221C53.3201 93.6571 52.4479 93.6571 51.7938 93.221C51.3577 92.7849 51.3577 91.9128 51.7938 91.2587L65.7482 77.3042C65.9662 77.0862 66.6204 76.8682 67.0564 76.8682C67.4925 76.8682 67.9286 77.3042 68.1466 77.7403L72.7254 89.7324L85.1535 77.3042C85.5896 76.8682 86.4617 76.8682 87.1159 77.3042C87.5519 77.9583 87.552 78.6125 86.8979 79.2666ZM70.763 71.1992C60.2972 71.1992 51.5758 62.6957 51.5758 52.0119C51.5758 41.5461 60.0792 32.8246 70.763 32.8246C81.2288 32.8246 89.9504 41.328 89.9504 52.0119C89.9504 62.6957 81.4469 71.1992 70.763 71.1992Z" fill="#2957FF"/>
<path d="M121.566 61.6055C123.092 61.6055 124.4 62.9138 124.4 64.44C124.4 65.9663 123.092 67.2745 121.566 67.2745C120.04 67.2745 118.731 65.9663 118.731 64.44C118.731 62.9138 120.04 61.6055 121.566 61.6055Z" fill="#2957FF"/>
<path d="M124.4 28.4638C125.927 28.4638 127.235 29.772 127.235 31.2983C127.235 32.8246 125.927 34.1328 124.4 34.1328C122.874 34.1328 121.566 32.8246 121.566 31.2983C121.566 29.772 122.874 28.4638 124.4 28.4638Z" fill="#2957FF"/>
<path d="M25.4112 14.9454C26.9375 14.9454 28.2457 16.2536 28.2457 17.7799C28.2457 19.3062 26.9375 20.6144 25.4112 20.6144C23.885 20.6144 22.5768 19.3062 22.5768 17.7799C22.5768 16.2536 23.885 14.9454 25.4112 14.9454Z" fill="#2957FF"/>
<path d="M14.5094 50.4856C16.0357 50.4856 17.3439 51.7938 17.3439 53.3201C17.3439 54.8464 16.0357 56.1546 14.5094 56.1546C12.9831 56.1546 11.6749 54.8464 11.6749 53.3201C11.6749 51.7938 12.7651 50.4856 14.5094 50.4856Z" fill="#2957FF"/>
<path d="M17.1258 122.22C18.6913 122.22 19.9603 120.951 19.9603 119.386C19.9603 117.82 18.6913 116.551 17.1258 116.551C15.5604 116.551 14.2913 117.82 14.2913 119.386C14.2913 120.951 15.5604 122.22 17.1258 122.22Z" fill="#2957FF"/>
<path d="M22.5768 91.9127C24.1031 91.9127 25.4113 93.221 25.4113 94.7472C25.4113 96.2735 24.1031 97.5817 22.5768 97.5817C21.0506 97.5817 19.7423 96.2735 19.7423 94.7472C19.7423 93.221 21.0506 91.9127 22.5768 91.9127Z" fill="#2957FF"/>
</g>
<defs>
<clipPath id="clip0_1_299">
<rect width="140" height="140" fill="white"/>
</clipPath>
</defs>
</svg>
