<svg width="100" height="40" viewBox="0 0 100 40" fill="none" xmlns="http://www.w3.org/2000/svg">
<path fill-rule="evenodd" clip-rule="evenodd" d="M42.7998 6.95654L36.8418 33.9131H44.0443L49.9997 6.95654H42.7998Z" fill="#1b34cb"/>
<path fill-rule="evenodd" clip-rule="evenodd" d="M81.2006 6.95654C79.8406 6.95654 78.6941 7.7367 78.1829 8.93393L67.543 33.9131H74.9859L76.467 29.8885H85.5623L86.4216 33.9131H92.9816L87.257 6.95654H81.2006ZM82.2416 14.2386L84.3895 24.3609H78.507L82.2416 14.2386Z" fill="#1b34cb"/>
<path d="M25.0296 25.276L32.2196 6.95654H39.4737L33.8778 20.4142L28.1726 33.9131H20.9949L15.4729 12.393C15.1393 11.0707 14.8492 10.5843 13.8328 10.028C12.1721 9.11724 9.43056 8.26587 7.01758 7.73809L7.18192 6.95654H18.9356C20.4323 6.95654 21.7799 7.96062 22.1213 9.69933L25.0296 25.276Z" fill="#1b34cb"/>
<path fill-rule="evenodd" clip-rule="evenodd" d="M51.1049 14.9818C51.056 18.8579 54.5435 21.021 57.1704 22.307C59.8697 23.6267 60.7763 24.4729 60.7659 25.6527C60.7454 27.4588 58.6127 28.2557 56.6168 28.2867C53.1344 28.341 51.11 27.3423 49.5003 26.5868L48.2461 32.4836C49.8609 33.2315 52.8512 33.8836 55.9522 33.912C63.2308 33.912 67.9929 30.3024 68.0188 24.7058C68.0472 17.6031 58.2393 17.2097 58.3063 14.0348C58.3294 13.0723 59.2437 12.045 61.2476 11.7837C62.2391 11.6518 64.9769 11.5508 68.0806 12.9868L69.2987 7.28153C67.6299 6.67081 65.4843 6.08594 62.8136 6.08594C55.9625 6.08594 51.1436 9.74463 51.1049 14.9818Z" fill="#1b34cb"/>
<path fill-rule="evenodd" clip-rule="evenodd" d="M24.5614 22.6087L22.3613 9.69933C22.0146 7.96062 20.6455 6.95654 19.1251 6.95654H7.18453L7.01758 7.73809C9.46889 8.26587 12.7866 9.52402 14.4737 10.4348C18.8597 12.8026 22.5122 16.9492 24.5614 22.6087Z" fill="#1b34cb"/>
<path fill-rule="evenodd" clip-rule="evenodd" d="M24.5614 22.6087L22.3613 9.69933C22.0146 7.96062 20.6455 6.95654 19.1251 6.95654H7.18453L7.01758 7.73809C9.46889 8.26587 12.7866 9.52402 14.4737 10.4348C18.8597 12.8026 22.5122 16.9492 24.5614 22.6087Z" fill="#1b34cb"/>
</svg>
