<?xml version="1.0" standalone="no"?>
<!DOCTYPE svg PUBLIC "-//W3C//DTD SVG 20010904//EN"
 "http://www.w3.org/TR/2001/REC-SVG-20010904/DTD/svg10.dtd">
<svg version="1.0" xmlns="http://www.w3.org/2000/svg"
 width="700.000000pt" height="700.000000pt" viewBox="0 0 700.000000 700.000000"
 preserveAspectRatio="xMidYMid meet">
<metadata>
Created by potrace 1.14, written by Peter Selinger 2001-2017
</metadata>
<g transform="translate(0.000000,700.000000) scale(0.100000,-0.100000)"
fill="#000000" stroke="none">
<path d="M5705 6965 c-66 -18 -255 -67 -420 -110 -165 -42 -334 -86 -375 -96
-41 -11 -82 -21 -90 -23 -51 -13 -644 -166 -785 -203 -93 -25 -177 -46 -185
-48 -8 -2 -62 -15 -120 -30 -57 -15 -111 -29 -120 -30 -8 -2 -15 -4 -15 -5 0
-1 -7 -3 -15 -5 -8 -2 -87 -22 -175 -44 -88 -23 -167 -43 -175 -45 -23 -6
-602 -155 -1010 -261 -201 -52 -444 -115 -540 -140 -96 -25 -249 -64 -340 -86
-91 -23 -170 -46 -175 -50 -8 -6 -11 -305 -10 -955 0 -831 2 -948 15 -955 13
-7 174 -55 355 -104 28 -8 106 -30 175 -50 69 -20 154 -44 190 -55 452 -126
443 -123 384 -135 -51 -11 -49 -10 -124 -30 -36 -9 -72 -19 -80 -20 -8 -2
-109 -28 -225 -58 -358 -93 -687 -177 -689 -177 -1 0 -2 -431 -1 -957 l0 -957
98 -27 c53 -15 121 -34 150 -43 28 -9 250 -73 492 -142 242 -69 676 -193 965
-275 289 -83 563 -161 610 -174 47 -13 589 -168 1205 -344 616 -176 1132 -322
1146 -326 l25 -6 0 956 0 955 -66 20 c-177 52 -246 72 -260 75 -16 3 -780 221
-815 232 -23 7 -40 2 290 88 121 31 254 66 295 76 41 11 84 22 95 24 11 3 119
31 240 62 l220 58 0 955 0 955 -577 165 c-317 90 -575 166 -573 169 4 3 263
73 320 85 11 3 54 14 95 25 135 36 394 103 450 116 48 11 94 23 250 65 l35 9
0 956 c0 631 -3 955 -10 954 -5 -1 -64 -16 -130 -34z"/>
</g>
</svg>
