<svg width="163" height="54" viewBox="0 0 163 54" fill="none" xmlns="http://www.w3.org/2000/svg">
<path d="M49.3712 29.0321L53.0278 30.1374C52.7822 31.1628 52.3954 32.0194 51.8673 32.7072C51.3392 33.3949 50.6822 33.9138 49.8962 34.2638C49.1164 34.6138 48.1216 34.7888 46.912 34.7888C45.4444 34.7888 44.2439 34.5769 43.3106 34.1532C42.3834 33.7234 41.5821 32.9712 40.9066 31.8966C40.2312 30.822 39.8934 29.4466 39.8934 27.7702C39.8934 25.5351 40.486 23.8189 41.6711 22.6215C42.8623 21.418 44.5448 20.8162 46.7185 20.8162C48.4194 20.8162 49.755 21.1601 50.7252 21.8478C51.7015 22.5355 52.4261 23.5917 52.8989 25.0163L49.2146 25.836C49.0857 25.4246 48.9506 25.1237 48.8093 24.9334C48.576 24.6141 48.2905 24.3684 47.9528 24.1965C47.615 24.0246 47.2374 23.9386 46.8198 23.9386C45.8742 23.9386 45.1496 24.3193 44.6461 25.0807C44.2654 25.6457 44.0751 26.5329 44.0751 27.7426C44.0751 29.2409 44.3023 30.2694 44.7567 30.8282C45.2111 31.3808 45.8497 31.6571 46.6725 31.6571C47.4707 31.6571 48.0725 31.433 48.4778 30.9848C48.8892 30.5365 49.187 29.8856 49.3712 29.0321ZM54.5384 27.8071C54.5384 25.6027 55.1524 23.8864 56.3805 22.6583C57.6086 21.4302 59.3187 20.8162 61.5108 20.8162C63.7582 20.8162 65.4898 21.421 66.7057 22.6307C67.9215 23.8342 68.5294 25.5228 68.5294 27.6966C68.5294 29.2747 68.2623 30.5703 67.728 31.5835C67.2 32.5905 66.4324 33.3765 65.4254 33.9414C64.4245 34.5002 63.1749 34.7796 61.6766 34.7796C60.1538 34.7796 58.8919 34.537 57.8911 34.0519C56.8963 33.5668 56.0888 32.7993 55.4687 31.7492C54.8485 30.6992 54.5384 29.3852 54.5384 27.8071ZM58.7108 27.8255C58.7108 29.1887 58.9626 30.1681 59.4661 30.7637C59.9757 31.3593 60.6665 31.6571 61.5385 31.6571C62.435 31.6571 63.1288 31.3655 63.6201 30.7821C64.1113 30.1988 64.3569 29.1518 64.3569 27.6413C64.3569 26.3702 64.099 25.443 63.5832 24.8597C63.0736 24.2702 62.3797 23.9755 61.5016 23.9755C60.6604 23.9755 59.9849 24.2733 59.4753 24.8689C58.9656 25.4645 58.7108 26.45 58.7108 27.8255ZM78.44 32.3203H73.6873L73.0334 34.5493H68.7688L73.8439 21.0465H78.394L83.469 34.5493H79.1032L78.44 32.3203ZM77.565 29.4005L76.0729 24.5465L74.59 29.4005H77.565ZM93.4534 29.0321L97.11 30.1374C96.8644 31.1628 96.4776 32.0194 95.9495 32.7072C95.4214 33.3949 94.7644 33.9138 93.9784 34.2638C93.1986 34.6138 92.2038 34.7888 90.9941 34.7888C89.5266 34.7888 88.3261 34.5769 87.3928 34.1532C86.4656 33.7234 85.6642 32.9712 84.9888 31.8966C84.3134 30.822 83.9756 29.4466 83.9756 27.7702C83.9756 25.5351 84.5682 23.8189 85.7533 22.6215C86.9445 21.418 88.627 20.8162 90.8007 20.8162C92.5016 20.8162 93.8372 21.1601 94.8074 21.8478C95.7837 22.5355 96.5083 23.5917 96.9811 25.0163L93.2968 25.836C93.1679 25.4246 93.0328 25.1237 92.8915 24.9334C92.6582 24.6141 92.3727 24.3684 92.035 24.1965C91.6972 24.0246 91.3196 23.9386 90.902 23.9386C89.9564 23.9386 89.2318 24.3193 88.7283 25.0807C88.3476 25.6457 88.1573 26.5329 88.1573 27.7426C88.1573 29.2409 88.3845 30.2694 88.8389 30.8282C89.2932 31.3808 89.9319 31.6571 90.7547 31.6571C91.5529 31.6571 92.1547 31.433 92.56 30.9848C92.9714 30.5365 93.2692 29.8856 93.4534 29.0321ZM99.164 21.0465H103.336V25.7715H107.896V21.0465H112.087V34.5493H107.896V29.0874H103.336V34.5493H99.164V21.0465ZM114.85 21.0465H126.031V23.9294H119.031V26.0755H125.525V28.8295H119.031V31.4913H126.234V34.5493H114.85V21.0465ZM127.763 30.0821L131.733 29.8334C131.819 30.4782 131.994 30.9694 132.258 31.3071C132.688 31.8536 133.302 32.1269 134.1 32.1269C134.696 32.1269 135.153 31.9887 135.472 31.7124C135.798 31.4299 135.961 31.1045 135.961 30.7361C135.961 30.3861 135.807 30.0729 135.5 29.7966C135.193 29.5203 134.481 29.2593 133.363 29.0137C131.533 28.6023 130.228 28.0558 129.449 27.3742C128.663 26.6926 128.27 25.8237 128.27 24.7676C128.27 24.0737 128.469 23.4197 128.868 22.8057C129.274 22.1855 129.878 21.7004 130.683 21.3504C131.493 20.9943 132.602 20.8162 134.008 20.8162C135.733 20.8162 137.047 21.1386 137.95 21.7833C138.859 22.4219 139.399 23.4412 139.571 24.8413L135.638 25.0715C135.534 24.4636 135.313 24.0215 134.975 23.7452C134.643 23.4689 134.183 23.3307 133.593 23.3307C133.108 23.3307 132.743 23.4351 132.497 23.6439C132.252 23.8465 132.129 24.0952 132.129 24.3899C132.129 24.6048 132.23 24.7983 132.433 24.9702C132.629 25.1483 133.096 25.3141 133.833 25.4676C135.657 25.8606 136.961 26.2597 137.747 26.665C138.54 27.0641 139.114 27.5615 139.47 28.1571C139.832 28.7527 140.013 29.419 140.013 30.1558C140.013 31.0216 139.774 31.8199 139.295 32.5506C138.816 33.2813 138.147 33.837 137.287 34.2177C136.427 34.5923 135.343 34.7796 134.036 34.7796C131.739 34.7796 130.149 34.3374 129.264 33.4532C128.38 32.569 127.88 31.4453 127.763 30.0821ZM142.288 21.0465H146.47V34.5493H142.288V21.0465ZM157.781 32.3203H153.028L152.374 34.5493H148.109L153.184 21.0465H157.735L162.81 34.5493H158.444L157.781 32.3203ZM156.906 29.4005L155.413 24.5465L153.931 29.4005H156.906Z" fill="black"/>
<path d="M28.531 24.7883L29.9726 20.5834L25.2875 21.5449L26.1289 22.5063L13.6351 33.5574L7.5083 30.6751L13.5151 35.7204L27.5705 23.948L28.531 24.7883Z" fill="#2957FF"/>
<path d="M18.7408 12.4146C14.798 12.4146 11.0167 13.9809 8.22876 16.7689C5.44078 19.5569 3.87451 23.3382 3.87451 27.281C3.87451 27.6045 3.8857 27.924 3.90503 28.2424C4.15083 24.4749 5.82078 20.942 8.576 18.3607C11.3312 15.7794 14.9653 14.343 18.7408 14.343C22.5164 14.343 26.1505 15.7794 28.9057 18.3607C31.6609 20.942 33.3309 24.4749 33.5767 28.2424C33.596 27.924 33.6072 27.6045 33.6072 27.281C33.6073 25.3287 33.2229 23.3954 32.4758 21.5917C31.7288 19.788 30.6337 18.1491 29.2532 16.7686C27.8727 15.3881 26.2338 14.2931 24.4301 13.546C22.6264 12.7989 20.6932 12.4145 18.7408 12.4146Z" fill="#2957FF"/>
<path d="M35.138 27.1904C35.1404 29.6703 34.5794 32.1184 33.4972 34.3497C32.4151 36.581 30.84 38.5373 28.8911 40.0708V26.3816L27.5573 25.2167L24.8103 27.5191V46.4153C27.1723 45.5431 29.3189 44.1728 31.1046 42.3977C32.8902 40.6225 34.2731 38.484 35.1593 36.1272C36.0455 33.7705 36.4143 31.2506 36.2407 28.7387C36.0671 26.2269 35.3552 23.7817 34.1531 21.5693C34.8078 23.3709 35.1411 25.2735 35.138 27.1904Z" fill="black"/>
<path d="M18.7406 11.033C21.2088 11.0323 23.6447 11.5948 25.8628 12.6774C28.0809 13.7601 30.0227 15.3346 31.5406 17.2809L37 14.7577L18.5005 6.90335L0 14.7577L5.85314 17.403C7.36771 15.4227 9.31814 13.818 11.5531 12.7133C13.7881 11.6086 16.2475 11.0336 18.7406 11.033Z" fill="#2957FF"/>
<path d="M8.58989 40.0708C5.87946 37.9316 3.91242 34.9924 2.96847 31.671C2.02451 28.3497 2.1517 24.8152 3.33193 21.5703C2.1299 23.7827 1.41788 26.2278 1.2442 28.7396C1.07053 31.2514 1.43926 33.7712 2.32537 36.128C3.21148 38.4847 4.59424 40.6233 6.37978 42.3985C8.16533 44.1737 10.3119 45.544 12.6738 46.4164V36.2688L8.58989 32.8381V40.0708Z" fill="black"/>
<path d="M13.9956 42.8911V46.8427C15.3273 47.2156 16.6985 47.4294 18.0805 47.4796V33.1525L13.9956 36.5709V42.8911Z" fill="black"/>
<path d="M19.4021 43.5758V47.4795C20.7838 47.4294 22.1546 47.2156 23.486 46.8426V28.6219L19.4021 32.0435V43.5758Z" fill="black"/>
</svg>
